<?xml version="1.0" standalone="no"?>
<!DOCTYPE svg PUBLIC "-//W3C//DTD SVG 1.1//EN" "http://www.w3.org/Graphics/SVG/1.1/DTD/svg11.dtd" >
<svg xmlns="http://www.w3.org/2000/svg">
<metadata>Generated by IcoMoon</metadata>
<defs>
<font id="icomoon" horiz-adv-x="1024">
<font-face units-per-em="1024" ascent="960" descent="-64" />
<missing-glyph horiz-adv-x="1024" />
<glyph unicode="&#x20;" horiz-adv-x="512" d="" />
<glyph unicode="&#xe900;" glyph-name="support" horiz-adv-x="1167" d="M1129.349 306.565c-23.45 21.258-60.006 19.866-84.623 0l-183.521-146.78c-21.46-17.326-49.068-27.812-79.126-27.812-0.118 0-0.236 0-0.354 0h-234.949c-17.536 0.046-31.738 14.249-31.785 31.781v0.004c0 17.469 14.295 31.785 31.785 31.785h155.525c31.58 0 60.969 21.647 66.15 52.838 0.571 3.202 0.898 6.888 0.898 10.65 0 35.143-28.489 63.631-63.631 63.631-0.013 0-0.026 0-0.039 0h-317.807c-53.637 0-105.472-18.473-147.19-52.224l-92.365-74.895h-110.019c-17.469 0-31.764-14.316-31.764-31.785v-190.669c0-17.49 14.295-31.785 31.764-31.785h708.71c0.022 0 0.048 0 0.075 0 30.14 0 57.832 10.476 79.636 27.984l-0.249-0.193 300.319 240.353c14.615 11.74 23.89 29.61 23.89 49.646 0 18.849-8.209 35.781-21.247 47.416l-0.062 0.055zM584.315 617.656c-44.032 0-79.872 35.84-79.872 79.872 0 44.052 35.84 79.913 79.872 79.913s79.872-35.84 79.872-79.892c0-44.032-35.84-79.872-79.872-79.872zM815.391 637.932l-42.557 24.576c2.047 10.536 3.219 22.652 3.219 35.041s-1.171 24.505-3.409 36.243l0.191-1.202 42.557 24.576c3.621 2.132 6.013 6.010 6.013 10.448 0 1.256-0.192 2.467-0.547 3.605l0.023-0.086c-11.691 36.724-30.421 68.319-54.771 94.639l0.15-0.164c-2.203 2.383-5.346 3.87-8.836 3.87-2.189 0-4.241-0.585-6.009-1.607l0.058 0.031-42.537-24.576c-17.155 14.835-37.329 26.744-59.408 34.651l-1.316 0.411v49.029c-0.002 5.689-3.976 10.449-9.3 11.658l-0.080 0.015c-36.659 8.192-74.199 7.782-109.036 0-5.412-1.216-9.396-5.979-9.4-11.673v-49.133c-23.354-8.447-43.501-20.325-60.972-35.245l0.269 0.224-42.435 24.576c-1.71 1.010-3.769 1.607-5.967 1.607-3.495 0-6.637-1.509-8.811-3.911l-0.009-0.010c-24.24-26.127-42.977-57.724-54.138-92.704l-0.482-1.75c-0.353-1.077-0.557-2.317-0.557-3.604 0-4.427 2.409-8.291 5.988-10.353l0.058-0.031 42.537-24.576c-2.047-10.536-3.219-22.652-3.219-35.041s1.171-24.505 3.409-36.243l-0.191 1.202-42.537-24.576c-3.621-2.132-6.013-6.010-6.013-10.448 0-1.256 0.192-2.467 0.547-3.605l-0.023 0.086c11.691-36.724 30.421-68.319 54.771-94.639l-0.15 0.164c3.789-4.096 9.994-5.1 14.787-2.294l42.537 24.576c17.149-14.833 37.316-26.742 59.387-34.65l1.315-0.411v-49.132c0-5.591 3.891-10.486 9.4-11.674 36.659-8.192 74.179-7.782 109.036 0 5.403 1.225 9.377 5.985 9.38 11.673v0 49.111c23.363 8.451 43.516 20.336 60.992 35.265l-0.268-0.224 42.537-24.576c1.71-1.010 3.769-1.607 5.967-1.607 3.495 0 6.637 1.509 8.811 3.911l0.009 0.010c24.242 26.132 42.98 57.736 54.138 92.724l0.482 1.75c0.311 1.031 0.49 2.215 0.49 3.441 0 4.505-2.417 8.446-6.025 10.597l-0.057 0.031z" />
<glyph unicode="&#xe901;" glyph-name="chat" d="M806.493 649.612h-605.882v100.98h605.859zM604.532 346.694h-403.898v100.957h403.898zM200.634 599.11h605.859v-100.957h-605.882zM907.473 952.553h-807.796c-55.575 0-100.515-45.452-100.515-101.004l-0.512-908.777 201.961 201.961h706.839c55.691 0.185 100.786 45.288 100.957 100.964v605.852c-0.158 55.694-45.245 100.806-100.915 101.004h-0.019z" />
<glyph unicode="&#xe902;" glyph-name="instagram" d="M1020.8 659.2c-3.2 54.4-9.6 92.8-22.4 124.8-12.8 35.2-28.8 64-57.6 89.6-28.8 28.8-57.6 44.8-89.6 57.6s-70.4 22.4-124.8 22.4c-57.6 6.4-76.8 6.4-214.4 6.4v0c-137.6 0-156.8 0-211.2-3.2s-92.8-9.6-124.8-22.4c-35.2-12.8-64-32-89.6-60.8-28.8-28.8-44.8-57.6-60.8-89.6-12.8-32-22.4-70.4-22.4-124.8-3.2-54.4-3.2-73.6-3.2-211.2s0-156.8 3.2-211.2c3.2-54.4 12.8-92.8 22.4-124.8 12.8-35.2 32-64 57.6-89.6 28.8-28.8 57.6-44.8 89.6-57.6s70.4-22.4 124.8-22.4c57.6-6.4 76.8-6.4 214.4-6.4s156.8 0 211.2 3.2c54.4 3.2 92.8 9.6 124.8 22.4s60.8 32 89.6 57.6c28.8 28.8 44.8 57.6 57.6 89.6s22.4 70.4 22.4 124.8c6.4 57.6 6.4 73.6 6.4 214.4s0 156.8-3.2 211.2zM928 240c-3.2-51.2-9.6-76.8-16-96-9.6-22.4-19.2-41.6-38.4-57.6-19.2-19.2-35.2-28.8-57.6-38.4-19.2-6.4-44.8-16-96-16-54.4-3.2-70.4-3.2-208-3.2s-153.6 0-208 3.2c-51.2 3.2-76.8 9.6-96 16-22.4 9.6-41.6 19.2-57.6 38.4-19.2 19.2-28.8 35.2-38.4 57.6-6.4 19.2-16 44.8-16 96-3.2 54.4-3.2 70.4-3.2 208s0 153.6 3.2 208c3.2 51.2 9.6 76.8 16 96 9.6 22.4 19.2 41.6 38.4 57.6 19.2 19.2 35.2 28.8 57.6 38.4 19.2 6.4 48 16 96 16 54.4 3.2 70.4 3.2 208 3.2v0c137.6 0 153.6 0 208-3.2 51.2-3.2 76.8-9.6 96-16 22.4-9.6 41.6-19.2 57.6-38.4 19.2-19.2 28.8-35.2 38.4-57.6 6.4-19.2 16-44.8 16-96 3.2-54.4 3.2-70.4 3.2-208s0-153.6-3.2-208zM512 710.4c-144 0-262.4-118.4-262.4-262.4s118.4-262.4 262.4-262.4 262.4 118.4 262.4 262.4c0 144-118.4 262.4-262.4 262.4zM512 278.4c-92.8 0-169.6 76.8-169.6 169.6s76.8 169.6 169.6 169.6 169.6-76.8 169.6-169.6-76.8-169.6-169.6-169.6zM844.8 720c0-33.579-27.221-60.8-60.8-60.8s-60.8 27.221-60.8 60.8c0 33.579 27.221 60.8 60.8 60.8s60.8-27.221 60.8-60.8z" />
<glyph unicode="&#xe903;" glyph-name="mail" horiz-adv-x="1297" d="M1118.686 49.254h-910.609c-31.386 0.153-56.802 25.497-57.071 56.841v573.807l479.642-335.804c9.114-6.409 20.442-10.243 32.666-10.243s23.552 3.834 32.848 10.365l-0.182-0.121 479.642 335.804v-573.577c-0.154-31.41-25.536-56.84-56.912-57.071h-0.022zM208.009 846.131h910.473c22.255 0 41.438-12.971 50.859-31.607l-505.993-354.304-506.061 354.304c9.517 18.753 28.584 31.422 50.629 31.607h0.025zM1288.465 798.618c-5.255 89.865-79.141 160.823-169.724 161.382h-911.005c-90.099-0.661-163.59-70.871-169.479-159.569l-0.027-0.516c-0.614-3.413-1.024-6.827-1.024-10.24v-683.691c0.539-94.025 76.636-170.098 170.619-170.598h911.067c94.078 0.501 170.204 76.651 170.666 170.69v683.666c-0.128 3.227-0.495 6.278-1.086 9.249l0.062-0.374z" />
<glyph unicode="&#xe904;" glyph-name="mobile" horiz-adv-x="701" d="M605.615 118.865h-493.676v658.27h493.676zM593.92 960h-470.232c-51.739 0-94.046-41.876-94.046-93.076v-837.848c0-51.2 42.307-93.076 94.046-93.076h470.178c51.739 0 94.046 41.876 94.046 93.076v837.848c0 51.2-42.307 93.076-94.046 93.076z" />
<glyph unicode="&#xe905;" glyph-name="search" d="M415.367 313.155c-0.048 0-0.105 0-0.162 0-136.027 0-246.299 110.272-246.299 246.299 0 0.038 0 0.076 0 0.114v-0.006c0 0.032 0 0.070 0 0.108 0 136.027 110.272 246.299 246.299 246.299 0.057 0 0.114 0 0.17 0h-0.009c0.032 0 0.070 0 0.108 0 136.027 0 246.299-110.272 246.299-246.299 0-0.038 0-0.076 0-0.114v0.006c0-0.032 0-0.070 0-0.108 0-136.027-110.272-246.299-246.299-246.299-0.038 0-0.076 0-0.114 0h0.006zM987.136 107.709l-191.973 191.973c-8.353 8.326-19.878 13.474-32.605 13.474-0.038 0-0.076 0-0.115 0h-31.361c52.821 66.976 84.723 152.589 84.723 245.654 0 0.265 0 0.529-0.001 0.794v-0.041c0 0.016 0 0.035 0 0.054 0 221.126-179.258 400.384-400.384 400.384-0.019 0-0.038 0-0.057 0h0.003c-0.016 0-0.035 0-0.054 0-221.126 0-400.384-179.258-400.384-400.384 0-0.019 0-0.038 0-0.057v0.003c0-0.016 0-0.035 0-0.054 0-221.126 179.258-400.384 400.384-400.384 0.019 0 0.038 0 0.057 0h-0.003c0.223 0 0.488-0.001 0.753-0.001 93.065 0 178.678 31.902 246.502 85.367l-0.847-0.644v-31.421c0-12.288 4.851-24.037 13.474-32.714l191.919-191.919c8.338-8.382 19.88-13.569 32.633-13.569s24.296 5.187 32.631 13.567l54.49 54.436c8.42 8.401 13.628 20.017 13.628 32.849 0 12.725-5.122 24.254-13.417 32.637l0.004-0.004z" />
<glyph unicode="&#xe906;" glyph-name="arrow-up" d="M87.43 374.662l-50.225 50.225c-9.839 9.795-15.928 23.35-15.928 38.327s6.089 28.532 15.926 38.325l439.444 439.688c9.795 9.839 23.35 15.928 38.327 15.928s28.532-6.089 38.325-15.926l439.688-439.688c9.839-9.795 15.928-23.35 15.928-38.327s-6.089-28.532-15.926-38.325l-50.227-50.227c-21.455-21.455-56.515-21.016-77.531 0.926l-259.657 272.53v-649.996c0-0.058 0-0.127 0-0.195 0-29.893-24.233-54.126-54.126-54.126-0.052 0-0.103 0-0.155 0h-72.452c-0.043 0-0.095 0-0.146 0-29.893 0-54.126 24.233-54.126 54.126 0 0.051 0 0.103 0 0.154v-0.008 649.996l-259.657-272.482c-9.856-10.435-23.788-16.931-39.237-16.931-14.972 0-28.519 6.101-38.291 15.952l-0.004 0.004z" />
<glyph unicode="&#xe907;" glyph-name="check" horiz-adv-x="1422" d="M455.396 143.019l-321.308 306.517-113.892-103.367 435.2-413.753 931.157 886.556-113.835 103.481z" />
<glyph unicode="&#xe908;" glyph-name="clock" horiz-adv-x="1097" d="M644.681 234.789l-183.077 133.047c-6.183 4.611-10.149 11.897-10.167 20.111v349.333c0 13.678 11.264 24.869 24.942 24.869h99.621c13.678 0 24.869-11.191 24.869-24.869v-285.842l131.877-95.817c6.224-4.575 10.218-11.869 10.218-20.095 0-5.571-1.832-10.714-4.926-14.859l0.047 0.066-58.514-80.603c-4.622-6.176-11.92-10.131-20.142-10.131-5.543 0-10.665 1.797-14.817 4.841l0.070-0.049zM526.19 961.463c-0.043 0-0.095 0-0.146 0-284.224 0-514.633-230.409-514.633-514.633 0-0.051 0-0.103 0-0.154v0.008c0-0.043 0-0.095 0-0.146 0-284.224 230.409-514.633 514.633-514.633 0.051 0 0.103 0 0.154 0h-0.008c0.043 0 0.095 0 0.146 0 284.224 0 514.633 230.409 514.633 514.633 0 0.051 0 0.103 0 0.154v-0.008c0 0.043 0 0.095 0 0.146 0 284.224-230.409 514.633-514.633 514.633-0.051 0-0.103 0-0.154 0h0.008z" />
<glyph unicode="&#xe909;" glyph-name="arrow-right" horiz-adv-x="1084" d="M454.776 894.765l51.381 51.381c10.015 10.056 23.872 16.279 39.183 16.279s29.168-6.223 39.181-16.277l449.719-449.478c10.074-10.018 16.309-23.887 16.309-39.213s-6.235-29.195-16.307-39.211l-449.719-449.658c-10.015-10.056-23.872-16.279-39.183-16.279s-29.168 6.223-39.181 16.277l-0.002 0.002-51.381 51.32c-10.025 10.055-16.223 23.93-16.223 39.252 0 15.767 6.564 30.002 17.107 40.12l0.019 0.018 278.769 265.517h-664.817c-0.036 0-0.078 0-0.121 0-30.606 0-55.416 24.811-55.416 55.416 0 0.042 0 0.085 0 0.127v-0.007 74.029c0 30.72 24.757 55.477 55.537 55.477h664.817l-278.769 265.577c-10.65 10.081-17.278 24.317-17.278 40.102 0 15.343 6.262 29.223 16.37 39.223l0.005 0.005z" />
<glyph unicode="&#xe90a;" glyph-name="handshake" horiz-adv-x="1308" d="M1289.728 650.837l-160 277.191c-11.271 19.266-31.862 32.003-55.427 32.003-11.775 0-22.807-3.18-32.285-8.728l0.302 0.164-206.791-119.41h-204.402c-24.007 0-47.388-6.798-67.812-19.399l-66.958-41.813c-18.134-11.408-30.009-31.312-30.009-53.991 0-0.069 0-0.138 0-0.206v0.011-252.587c0-44.183 35.817-80 80-80s80 35.817 80 80v0 175.986h368.014c61.828-0.049 111.937-50.157 111.986-111.981v-57.008l160 92.388c19.244 11.291 31.96 31.878 31.96 55.436 0 11.77-3.175 22.8-8.714 32.277l0.164-0.303zM994.332 576.028h-304.014v-111.986c-0.081-79.494-64.494-143.917-143.976-144.014h-0.009c-79.504 0.081-143.933 64.51-144.014 144.006v243.208l-129.792-77.995c-37.506-22.695-62.193-63.261-62.208-109.594v-94.608l-159.972-92.416c-19.262-11.237-32-31.803-32-55.343 0-11.8 3.201-22.853 8.781-32.337l-0.163 0.299 160-277.22c11.279-19.236 31.852-31.948 55.395-31.948 11.776 0 22.81 3.181 32.288 8.73l-0.302-0.164 206.791 119.381h273.209c70.599 0 128 57.401 128 128h32c0.017 0 0.037 0 0.057 0 35.315 0 63.943 28.628 63.943 63.943 0 0.020 0 0.040 0 0.060v-0.003 128h16.014c26.596 0 47.986 21.419 47.986 48.014v96c0 26.596-21.39 47.986-47.986 47.986z" />
<glyph unicode="&#xe90b;" glyph-name="brain" horiz-adv-x="1195" d="M1170.29 352c-0.018-66.275-40.328-123.13-97.766-147.403l-1.050-0.394c1.783-8.5 2.804-18.268 2.804-28.274 0-79.49-64.439-143.929-143.929-143.929-0.026 0-0.052 0-0.078 0h0.004c-8.192 0-16.213 0.996-24.007 2.389-19.2-57.003-72.391-98.389-135.964-98.389-0.025 0-0.055 0-0.085 0-79.49 0-143.929 64.439-143.929 143.929 0 0.020 0 0.040 0 0.060v-0.003 752.014c0 70.692 57.308 128 128 128v0c59.79 0 109.397-40.988 123.591-96.427 1.422 0 2.788 0.427 4.409 0.427 70.599 0 128-57.401 128-128 0-9.614-1.422-19.001-3.413-27.989 58.803-24.521 99.387-81.53 99.413-148.022v-0.003c0-25.173-6.201-48.583-16.612-69.774 47.986-27.591 80.612-78.791 80.612-138.212zM434.29 960c70.599 0 128-57.401 128-128v-752.014c0-0.017 0-0.037 0-0.057 0-79.49-64.439-143.929-143.929-143.929-0.030 0-0.060 0-0.090 0h0.004c-63.602 0-116.793 41.387-135.993 98.418-7.794-1.422-15.815-2.418-24.007-2.418-0.022 0-0.048 0-0.074 0-79.49 0-143.929 64.439-143.929 143.929 0 10.006 1.021 19.774 2.965 29.204l-0.16-0.93c-58.476 24.676-98.775 81.529-98.788 147.796v0.002c0 59.392 32.597 110.592 80.583 138.212-10.283 20.346-16.386 44.324-16.583 69.709v0.065c0.021 66.488 40.594 123.495 98.329 147.633l1.056 0.392c-2.154 8.4-3.397 18.046-3.413 27.979v0.010c0 70.599 57.429 128 128 128 1.621 0 2.816-0.398 4.409-0.398 14.222 55.41 63.801 96.398 123.62 96.398z" />
<glyph unicode="&#xe90c;" glyph-name="people" d="M1002.336 71.68v-125.44h-1003.52v125.44c0 166.816 334.272 250.88 501.76 250.88 167.456 0 501.76-84.064 501.76-250.88zM249.696 698.88c0 0.019 0 0.042 0 0.064 0 138.522 112.294 250.816 250.816 250.816 0.022 0 0.045 0 0.067 0h-0.003c0.019 0 0.042 0 0.064 0 138.522 0 250.816-112.294 250.816-250.816 0-0.022 0-0.045 0-0.067v0.003c0-0.019 0-0.042 0-0.064 0-138.522-112.294-250.816-250.816-250.816-0.022 0-0.045 0-0.067 0h0.003c-0.019 0-0.042 0-0.064 0-138.522 0-250.816 112.294-250.816 250.816 0 0.022 0 0.045 0 0.067v-0.003z" />
<glyph unicode="&#xe90d;" glyph-name="window" d="M523.364 421.925h479.732v-479.732h-479.732zM1.598 421.925h479.732v-479.732h-479.732zM523.339 943.691h479.781v-479.707h-479.781zM1.598 943.691h479.732v-479.707h-479.732z" />
<glyph unicode="&#xe90e;" glyph-name="development" horiz-adv-x="1274" d="M1011.662 818.139h-753.814v-502.559h753.814zM1137.289 189.927h-1005.093v659.606c0.156 51.981 42.252 94.077 94.218 94.233h816.643c51.981-0.156 94.077-42.252 94.233-94.218v-0.015zM1262.917 95.719v-31.419c-0.212-69.296-56.331-125.415-125.607-125.627h-1005.113c-69.296 0.212-125.415 56.331-125.627 125.607v31.439c0 17.258 14.136 31.394 31.419 31.394h469.616c-0.5-28.522 27.648-62.814 64.337-62.814h119.333c35.415 0 62.839 23.927 64.287 62.814h475.96c17.283 0 31.419-14.136 31.419-31.394zM695.721 496.702l70.082 70.107-70.082 70.107c-5.685 5.686-9.201 13.54-9.201 22.216s3.516 16.53 9.202 22.216v0l22.178 22.203c5.687 5.693 13.546 9.214 22.228 9.214s16.541-3.521 22.228-9.214l114.513-114.538c5.678-5.684 9.189-13.534 9.189-22.203s-3.511-16.519-9.189-22.204v0l-114.538-114.538c-5.686-5.685-13.54-9.201-22.216-9.201s-16.53 3.516-22.216 9.202v0l-22.178 22.228c-5.678 5.684-9.189 13.534-9.189 22.203s3.511 16.519 9.189 22.204v0zM507.23 430.092l-114.538 114.538c-5.678 5.684-9.189 13.534-9.189 22.203s3.511 16.519 9.189 22.204v0l114.513 114.538c5.687 5.693 13.546 9.214 22.228 9.214s16.541-3.521 22.228-9.214v0l22.178-22.228c5.678-5.684 9.189-13.534 9.189-22.203s-3.511-16.519-9.189-22.204v0l-70.107-70.132 70.132-70.082c5.685-5.686 9.201-13.54 9.201-22.216s-3.516-16.53-9.202-22.216v0l-22.228-22.203c-5.684-5.678-13.534-9.189-22.203-9.189s-16.519 3.511-22.204 9.189v0z" />
<glyph unicode="&#xe90f;" glyph-name="services" horiz-adv-x="1280" d="M1280 896v-256c0-35.346-28.654-64-64-64v0h-256c-35.346 0-64 28.654-64 64v0 256c0 35.346 28.654 64 64 64v0h256c35.346 0 64-28.654 64-64v0zM384 832h448v-128h-448v-95.004l128.569-224.996h-0.569c-47.218 0-88.036-25.97-110.251-64.085l-146.318 256.085h-191.431c-35.346 0-64 28.654-64 64v0 256c0 35.346 28.654 64 64 64v0h256c35.346 0 64-28.654 64-64v0zM832 256v-256c0-35.346-28.654-64-64-64v0h-256c-35.346 0-64 28.654-64 64v0 256c0 35.346 28.654 64 64 64v0h256c35.346 0 64-28.654 64-64v0z" />
<glyph unicode="&#xe910;" glyph-name="arrow-left" horiz-adv-x="1084" d="M629.224 894.765l-51.381 51.381c-10.015 10.056-23.872 16.279-39.183 16.279s-29.168-6.223-39.181-16.277l-449.719-449.478c-10.074-10.018-16.309-23.887-16.309-39.213s6.235-29.195 16.307-39.211l449.719-449.658c10.015-10.056 23.872-16.279 39.183-16.279s29.168 6.223 39.181 16.277l0.002 0.002 51.381 51.32c10.025 10.055 16.223 23.93 16.223 39.252 0 15.767-6.564 30.002-17.107 40.12l-0.019 0.018-278.769 265.517h664.817c0.036 0 0.078 0 0.121 0 30.606 0 55.416 24.811 55.416 55.416 0 0.042 0 0.085 0 0.127v-0.007 74.029c0 30.72-24.757 55.477-55.537 55.477h-664.817l278.769 265.577c10.65 10.081 17.278 24.317 17.278 40.102 0 15.343-6.262 29.223-16.37 39.223l-0.005 0.005z" />
<glyph unicode="&#xe911;" glyph-name="chevron-down" d="M21.441 594.376l438.835-438.835c28.598-28.598 74.895-28.598 103.419 0l438.835 438.835c28.598 28.598 28.598 74.895 0 103.419s-74.895 28.598-103.419 0l-387.126-387.126-387.126 387.126c-28.598 28.598-74.895 28.598-103.419 0s-28.598-74.895 0-103.419z" />
<glyph unicode="&#xe912;" glyph-name="chevron-right" d="M344.291-63.884l438.835 438.835c28.598 28.598 28.598 74.895 0 103.419l-438.835 438.835c-28.598 28.598-74.895 28.598-103.419 0s-28.598-74.895 0-103.419l387.126-387.126-387.126-387.126c-28.598-28.598-28.598-74.895 0-103.419s74.895-28.598 103.419 0z" />
<glyph unicode="&#xe913;" glyph-name="chevron-left" d="M783.126 39.556l-387.126 387.126 387.126 387.126c28.598 28.598 28.598 74.895 0 103.419s-74.895 28.598-103.419 0l-438.835-438.835c-28.598-28.598-28.598-74.895 0-103.419l438.835-438.835c28.598-28.598 74.895-28.598 103.419 0s28.598 74.895 0 103.419z" />
<glyph unicode="&#xe914;" glyph-name="email" horiz-adv-x="1344" d="M1183.232 704l-512-320-512 320v128l512-320 512 320zM1183.232 960h-1024c-70.4 0-127.36-57.6-127.36-128l-0.64-768c0-70.4 57.6-128 128-128h1024c70.4 0 128 57.6 128 128v768c0 70.4-57.6 128-128 128z" />
<glyph unicode="&#xe915;" glyph-name="call" d="M68.032 921.984c40.896 40.992 164.512 47.84 165.44 26.144 0.928-21.664 111.328-262.112 112.288-283.808 0.96-21.664-72.768-95.584-94.336-117.216-21.376-21.408 144.256-209.056 147.392-212.608 3.52-3.168 190.72-169.184 212.096-147.744 21.568 21.632 95.328 95.52 116.896 94.56 21.632-0.928 261.536-111.584 283.168-112.576 21.632-0.928 14.816-124.8-26.080-165.824-34.976-35.040-216.064-162.272-530.944 64.928-34.528 19.904-89.216 65.568-172.16 148.672-0.032 0.032-0.096 0.096-0.16 0.128-0.064 0.096-0.128 0.128-0.192 0.192s-0.128 0.128-0.192 0.192c-0.032 0.064-0.096 0.128-0.128 0.16-82.88 83.136-128.448 137.984-148.32 172.576-226.656 315.648-99.712 497.184-64.768 532.224z" />
<glyph unicode="&#xe916;" glyph-name="pin" d="M510.016-64c0 0-318.016 449.984-318.016 641.984 0 378.016 318.016 382.016 318.016 382.016s321.984-4 321.984-380c0-197.984-321.984-644-321.984-644zM512 768c-70.688 0-128-57.312-128-128s57.312-128 128-128 128 57.312 128 128-57.312 128-128 128z" />
<glyph unicode="&#xe917;" glyph-name="setting" d="M863.68 364.32c68.992-51.424 128.128-98.496 128.128-98.496l-84.192-147.648-152.16 67.168-140.992-82.464c-9.536-86.944-18.272-166.88-18.272-166.88h-168.384l-18.688 167.392-138.944 82.656-153.824-67.904-84.16 147.648c0 0 58.144 46.848 126.976 98.112v168.288l-126.976 97.92 84.16 147.68 150.144-66.816 149.056 80.864 12.256 168.16h168.384l12.192-167.456 147.008-82.496 152.256 67.776 84.192-147.68-128.128-98.272v-167.552zM512 576c-70.688 0-128-57.312-128-128s57.312-128 128-128 128 57.312 128 128-57.312 128-128 128z" />
<glyph unicode="&#xe918;" glyph-name="star" d="M1021.322 567.236c-6.742 20.735-25.133 35.415-46.805 37.376l-295.599 26.836-116.822 273.505c-8.625 20.094-28.25 33.063-50.095 33.063s-41.477-12.969-50.048-33.063l-116.822-273.505-295.646-26.836c-21.672-2-40.024-16.68-46.805-37.376-6.742-20.735-0.516-43.477 15.875-57.853l223.449-195.933-65.884-290.177c-4.82-21.336 3.461-43.399 21.164-56.196 9.516-6.914 20.696-10.367 31.915-10.367 9.641 0 19.289 2.563 27.907 7.719l254.895 152.409 254.848-152.409c18.696-11.172 42.204-10.149 59.868 2.648 17.703 12.797 25.985 34.86 21.164 56.196l-65.884 290.177 223.449 195.933c16.383 14.375 22.618 37.071 15.875 57.853z" />
<glyph unicode="&#xe919;" glyph-name="empty-star" d="M229.193-43.294c-11.219 0-22.36 3.5-31.868 10.375-17.711 12.836-25.985 34.899-21.165 56.189l65.877 290.187-223.412 195.927c-16.422 14.336-22.696 37.040-15.954 57.814 6.742 20.735 25.087 35.415 46.806 37.423l295.601 26.837 116.87 273.499c8.617 20.094 28.243 33.071 50.048 33.071s41.431-12.977 50.048-33.024l116.87-273.546 295.554-26.837c21.766-1.961 40.11-16.688 46.853-37.423s0.508-43.478-15.914-57.814l-223.412-195.888 65.877-290.179c4.828-21.336-3.453-43.4-21.157-56.197-17.665-12.797-41.22-13.782-59.822-2.602l-254.897 152.324-254.897-152.41c-8.617-5.117-18.219-7.727-27.907-7.727zM511.998 182.462c9.688 0 19.282-2.602 27.907-7.719l240.561-143.879-62.173 273.89c-4.438 19.493 2.18 39.845 17.243 53.033l210.951 185.005-279.093 25.344c-20.094 1.836-37.376 14.469-45.228 32.985l-110.167 258.1-110.3-258.139c-7.766-18.391-25.048-31.024-45.095-32.86l-279.132-25.344 210.943-185.005c15.11-13.227 21.719-33.54 17.243-53.079l-62.127-273.882 240.561 143.832c8.617 5.117 18.219 7.719 27.907 7.719zM342.821 626.169s0-0.047-0.047-0.086zM681.088 626.294l0.047-0.086c0 0.047 0 0.047-0.047 0.086z" />
<glyph unicode="&#xe91a;" glyph-name="arrow-down" d="M87.43 521.338l-50.225-50.225c-9.839-9.795-15.928-23.35-15.928-38.327s6.089-28.532 15.926-38.325l439.444-439.688c9.795-9.839 23.35-15.928 38.327-15.928s28.532 6.089 38.325 15.926l439.688 439.688c9.839 9.795 15.928 23.35 15.928 38.327s-6.089 28.532-15.926 38.325l-50.227 50.227c-21.455 21.455-56.515 21.016-77.531-0.926l-259.657-272.53v649.996c0 0.058 0 0.127 0 0.195 0 29.893-24.233 54.126-54.126 54.126-0.052 0-0.103 0-0.155 0h-72.452c-0.043 0-0.095 0-0.146 0-29.893 0-54.126-24.233-54.126-54.126 0-0.051 0-0.103 0-0.154v0.008-649.996l-259.657 272.482c-9.856 10.435-23.788 16.931-39.237 16.931-14.972 0-28.519-6.101-38.291-15.952l-0.004-0.004z" />
<glyph unicode="&#xe91b;" glyph-name="caret-left" horiz-adv-x="402" d="M365.714 694.857v-512c0-20-16.571-36.571-36.571-36.571-9.714 0-18.857 4-25.714 10.857l-256 256c-6.857 6.857-10.857 16-10.857 25.714s4 18.857 10.857 25.714l256 256c6.857 6.857 16 10.857 25.714 10.857 20 0 36.571-16.571 36.571-36.571z" />
<glyph unicode="&#xe91c;" glyph-name="mail-forward" d="M1024 585.143c0-9.714-4-18.857-10.857-25.714l-292.571-292.571c-6.857-6.857-16-10.857-25.714-10.857-20 0-36.571 16.571-36.571 36.571v146.286h-128c-246.286 0-408-47.429-408-320 0-23.429 1.143-46.857 2.857-70.286 0.571-9.143 2.857-19.429 2.857-28.571 0-10.857-6.857-20-18.286-20-8 0-12 4-16 9.714-8.571 12-14.857 30.286-21.143 43.429-32.571 73.143-72.571 177.714-72.571 257.714 0 64 6.286 129.714 30.286 190.286 79.429 197.143 312.571 230.286 500 230.286h128v146.286c0 20 16.571 36.571 36.571 36.571 9.714 0 18.857-4 25.714-10.857l292.571-292.571c6.857-6.857 10.857-16 10.857-25.714z" />
<glyph unicode="&#xe91d;" glyph-name="pdf" horiz-adv-x="864" d="M692.992 276.672c0.736-0.736 1.088-1.28 1.088-1.632-2.418-0.388-5.205-0.609-8.044-0.609-0.66 0-1.316 0.012-1.97 0.036l0.095-0.003c-17.6 0-40.384 5.152-68.288 15.424 42.592 0 68.288-4.384 77.12-13.216zM337.152 267.872c5.472 9.92 13.76 25.152 24.768 45.728 20.544 40.768 35.808 76.928 45.728 108.512 18.72-40 42.048-72.32 69.952-96.96 1.824-1.824 4.768-4.32 8.8-7.424 4.064-3.136 6.432-4.864 7.168-5.248-54.72-9.92-106.88-24.768-156.448-44.608zM405.44 633.088c0.352 0.384 0.544 0.736 0.544 1.12 4.415-5.36 7.111-12.28 7.168-19.828v-0.012c0-0.384 0.096-0.64 0.256-0.832 0.192-0.192 0.32-0.448 0.32-0.832 0-0.352 0.16-0.736 0.512-1.088-0.984-1.247-1.744-2.723-2.187-4.329l-0.021-0.087c-2.56-14.688-3.84-22.592-3.84-23.68-2.208-13.6-3.52-21.664-3.84-24.256-4.8 33.056-4.416 57.28 1.088 72.736zM186.176 125.184c4.8 11.040 13.888 24.64 27.296 40.768 14.469 17.136 30.262 32.32 47.49 45.746l0.702 0.526c-31.232-49.216-56.384-78.208-75.488-87.040zM503.488 351.616c-33.408 27.168-60.224 70.848-80.416 131.104 4.384 25.312 6.976 60.576 7.68 105.76v16.512c0.005 0.142 0.008 0.309 0.008 0.476 0 1.403-0.202 2.759-0.577 4.041l0.025-0.101c1.007 1.241 1.779 2.719 2.22 4.332l0.020 0.084c3.296 17.248 1.632 29.76-4.992 37.44-4.384 5.504-10.816 8.256-19.264 8.256h-12.128c-11.392 0-19.104-7.36-23.136-22.016-4.8-18.368-5.952-41.792-3.584-70.24 2.4-28.48 8-57.76 16.8-87.872-13.216-46.272-32.32-94.4-57.28-144.32-21.54-44.35-41.163-79.888-62.296-114.399l3.352 5.887c0 0.736-0.352 1.472-1.088 2.208-3.328 5.504-7.552 6.592-12.672 3.296-31.232-16.512-55.456-34.24-72.736-53.152s-27.52-35.712-30.848-50.4c-1.472-9.568-0.352-16.16 3.328-19.84 1.824-1.472 2.912-2.4 3.296-2.752l13.216-6.624c4.8-2.56 9.92-3.84 15.424-3.84 32.672 0 77.12 48.096 133.312 144.32 62.784 21.664 134.784 36.896 215.936 45.728 23.136-12.128 47.040-21.856 71.616-29.216 24.608-7.36 45.728-11.008 63.36-11.008 23.872 0 36.896 6.976 39.104 20.928v0.544l1.088 1.12c0.384 0.352 0.576 0.736 0.576 1.088 5.12 11.040 4.768 20.576-1.12 28.64-11.008 18.016-43.52 27.008-97.504 27.008-21.312 0-42.784-1.28-64.448-3.84-17.759 10.268-32.87 20.462-47.241 31.568l0.969-0.72zM786.624 24.928h-705.088v846.144h423.040v-229.152c0-14.72 5.152-27.2 15.424-37.472 10.304-10.272 22.784-15.424 37.472-15.424h229.152zM575.104 866.656c10.656-3.68 18.176-7.68 22.592-12.128l172.416-172.416c4.416-4.384 8.448-11.936 12.128-22.592h-207.136zM647.808 904.096c-10.272 10.304-24.224 19.104-41.856 26.464s-33.792 11.008-48.512 11.008h-493.536c-14.72 0-27.2-5.12-37.44-15.424-9.543-9.279-15.463-22.24-15.463-36.584 0-0.301 0.003-0.601 0.008-0.901l-0.001 0.045v-881.408c0-14.688 5.12-27.168 15.424-37.44 10.272-10.304 22.784-15.424 37.44-15.424h740.384c14.72 0 27.2 5.12 37.44 15.424 10.304 10.272 15.456 22.752 15.456 37.44v634.624c0 14.688-3.68 30.848-11.040 48.448-7.36 17.632-16.16 31.584-26.432 41.888z" />
<glyph unicode="&#xe91e;" glyph-name="strategy" horiz-adv-x="1280" d="M1184 960c52.935 0 96-44.487 96-99.186v-633.628c0-54.699-43.065-99.186-96-99.186h-489.102c-13.678 51.35-41.519 94.96-79.059 127.743l-0.301 0.257h152.462v128h256v-128h128v576h-704v-99.612c-37.803 22.044-81.152 35.612-128 35.612v92.814c0 54.699 43.065 99.186 96 99.186h768zM128 512c0 106.039 85.961 192 192 192s192-85.961 192-192v0c0-106.039-85.961-192-192-192s-192 85.961-192 192v0zM640 30.748c-0.284-52.508-43.463-94.748-96-94.748h-448c-52.537 0-95.716 42.24-96 94.748-0.002 0.363-0.003 0.793-0.003 1.223 0 123.719 100.287 224.014 224.002 224.028h0.001c4.779 0 9.529-0.711 14.108-2.19 25.941-8.42 53.191-13.796 81.892-13.796s55.95 5.404 81.892 13.796c4.551 1.479 9.33 2.19 14.108 2.19 123.717-0.014 224.003-100.31 224.003-224.028 0-0.43-0.001-0.86-0.004-1.289v0.066z" />
<glyph unicode="&#xe91f;" glyph-name="security" horiz-adv-x="957" d="M485.51 74.819l-0.2 742.177 342.662-142.781c-6.411-294.912-159.922-508.616-342.461-599.396zM895.377 781.156l-374.027 155.871c-10.619 4.527-22.972 7.158-35.94 7.158s-25.321-2.631-36.555-7.389l0.615 0.231-374.005-155.826c-34.135-14.411-57.656-47.606-57.656-86.294 0-0.012 0-0.024 0-0.035v0.002c0-386.671 223.054-653.958 431.482-740.842 10.619-4.527 22.972-7.158 35.94-7.158s25.321 2.631 36.555 7.389l-0.615-0.231c166.957 69.543 431.683 309.738 431.683 740.842 0 0.003 0 0.007 0 0.011 0 38.64-23.435 71.807-56.867 86.063l-0.611 0.232z" />
<glyph unicode="&#xe920;" glyph-name="telefone" horiz-adv-x="1000" d="M996.709 450.929v-321.846c0-96.83-78.49-175.329-175.317-175.342h-352.924c-51.49 0-93.232 41.741-93.232 93.232s41.741 93.232 93.232 93.232v0h62.154c51.477 0 93.208-41.731 93.208-93.208 0-0.008 0-0.017 0-0.025v0.001h197.561c45.348 0 82.111 36.762 82.111 82.111v0s-0.071 317.107-0.238 321.846h0.238c0 222.732-181.224 403.932-403.956 403.932-191.274 0-351.923-133.62-393.502-312.439-59.192-10.242-103.644-61.201-103.662-122.545v-0.002 31.077c8.883 266.359 219.803 497.14 497.164 497.14s488.281-230.757 497.164-497.164zM95.589 450.929v-31.077c0-17.17-13.907-31.077-31.077-31.077h-31.077c-17.146 0-31.053 13.907-31.053 31.077v-93.232c0-0.007 0-0.015 0-0.024 0-68.641 55.644-124.285 124.285-124.285h31.077c34.327 0 62.154 27.827 62.154 62.154v0 217.517c0 34.327-27.827 62.154-62.154 62.154v0h-31.077c-7.025 0-13.907-0.572-20.623-1.691-6.644-27.423-10.454-58.906-10.454-91.28 0-0.083 0-0.167 0-0.25v0.013z" />
<glyph unicode="&#xe921;" glyph-name="team" horiz-adv-x="1048" d="M177.176 632.125l276.041 16.823v-69.022l-103.522-4.608v-301.958l-68.998 4.023v295.229l-103.522-4.169zM16.14 50.786l598.138-103.522v1012.224l-598.138-103.522zM821.321 545.402h-172.52v-406.577c11.508-2.487 15.628-4.413 23.82-5.534 8.923-1.292 17.969-1.95 26.99-1.975 14.728 0.074 29.035 1.695 42.822 4.709l-1.35-0.248c14.856 3.053 28.036 8.379 39.882 15.664l-0.531-0.304c11.898 7.314 21.943 17.262 29.33 29.086 7.301 12.174 11.618 26.861 11.618 42.556 0 1.128-0.022 2.251-0.066 3.368l0.005-0.161zM706.755 603.624c12.19-0.098 24.332 2.341 35.596 7.168 22.072 9.549 39.307 26.8 48.605 48.286l0.23 0.597c4.519 10.505 7.147 22.733 7.147 35.575 0 12.886-2.646 25.154-7.425 36.291l0.229-0.6c-9.55 22.085-26.799 39.334-48.287 48.653l-0.597 0.231c-10.345 4.547-22.405 7.194-35.082 7.194-0.198 0-0.395-0.001-0.593-0.002h0.030c-12.166 0.073-24.21-2.365-35.377-7.192-8.338-3.56-10.971-8.192-22.43-13.8v-141.41c11.508-5.656 14.092-10.24 22.43-13.824 11.215-4.876 23.308-7.266 35.523-7.168zM855.845 487.887v-276.066h46.007c16.689 0.079 32.946 1.708 48.7 4.751l-1.644-0.264c16.745 3.002 31.71 8.416 45.35 15.938l-0.757-0.383c13.356 7.36 24.463 17.221 33.032 29.042l0.199 0.289c9.167 13.434 13.751 29.501 13.117 45.787v180.907zM882.664 572.904c8.387-8.363 18.286-15.043 29.184-19.675 10.526-4.527 22.778-7.16 35.645-7.16s25.119 2.633 36.247 7.389l-0.602-0.229c22.086 9.548 39.336 26.798 48.653 48.287l0.231 0.597c4.524 10.522 7.155 22.77 7.155 35.633s-2.631 25.11-7.384 36.235l0.229-0.602c-9.55 22.085-26.799 39.334-48.287 48.653l-0.597 0.231c-10.526 4.527-22.778 7.16-35.645 7.16s-25.119-2.633-36.247-7.389l0.602 0.229c-22.078-9.55-39.32-26.8-48.629-48.286l-0.23-0.597c-4.524-10.522-7.155-22.77-7.155-35.633s2.631-25.11 7.384-36.235l-0.229 0.602c4.632-10.874 11.337-20.821 19.675-29.208z" />
<glyph unicode="&#xe922;" glyph-name="cloud" horiz-adv-x="1483" d="M1230.212 514.701c9.332 23.472 14.743 50.669 14.743 79.13 0 121.357-98.379 219.736-219.736 219.736-0.019 0-0.038 0-0.057 0h0.003c-0.051 0-0.111 0-0.172 0-45.419 0-87.603-13.854-122.556-37.566l0.766 0.49c-64.348 110.453-182.218 183.508-317.151 183.508-0.089 0-0.178 0-0.267 0h0.014c-0.031 0-0.069 0-0.106 0-202.151 0-366.027-163.876-366.027-366.027 0-0.037 0-0.075 0-0.112v0.006c0-6.179 0.247-12.359 0.459-18.538-129.311-46.542-220.109-168.137-220.125-310.941v-0.002c0-181.919 147.597-329.516 329.516-329.516h842.081c0.094 0 0.205 0 0.316 0 161.744 0 292.864 131.12 292.864 292.864 0 141.109-99.797 258.909-232.662 286.67l-1.903 0.333z" />
<glyph unicode="&#xe923;" glyph-name="file" horiz-adv-x="1152" d="M828 149.984c-29.815 0-53.984-24.169-53.984-53.984s24.169-53.984 53.984-53.984v0c29.823 0 54 24.177 54 54s-24.177 54-54 54v0zM972 149.984c-29.815 0-53.984-24.169-53.984-53.984s24.169-53.984 53.984-53.984v0c29.823 0 54 24.177 54 54s-24.177 54-54 54v0zM1080-48h-1008c-39.765 0-72 32.235-72 72v0 144c0 39.765 32.235 72 72 72v0h1008c39.765 0 72-32.235 72-72v0-144c0-39.765-32.235-72-72-72v0zM828 510.016c-29.823 0-54-24.177-54-54s24.177-54 54-54v0c29.823 0 54 24.177 54 54s-24.177 54-54 54v0zM972 510.016c-29.823 0-54-24.177-54-54s24.177-54 54-54v0c29.823 0 54 24.177 54 54s-24.177 54-54 54v0zM1080 312h-1008c-39.765 0-72 32.235-72 72v0 144c0 39.765 32.235 72 72 72v0h1008c39.765 0 72-32.235 72-72v0-144c0-39.765-32.235-72-72-72v0zM828 870.016c-29.823 0-54-24.177-54-54s24.177-54 54-54v0c29.823 0 54 24.177 54 54s-24.177 54-54 54v0zM972 870.016c-29.823 0-54-24.177-54-54s24.177-54 54-54v0c29.823 0 54 24.177 54 54s-24.177 54-54 54v0zM1080 672h-1008c-39.765 0-72 32.235-72 72v0 144c0 39.765 32.235 72 72 72v0h1008c39.765 0 72-32.235 72-72v0-144c0-39.765-32.235-72-72-72v0z" />
<glyph unicode="&#xe924;" glyph-name="laptop" horiz-adv-x="1295" d="M1023.006 832.904h-756.104v-504.049h756.104zM1149.018 202.842h-1008.128v661.594c0.154 52.134 42.375 94.356 94.494 94.509h819.125c52.134-0.154 94.356-42.375 94.509-94.494v-0.015zM1243.528 139.836c17.348 0 31.503-14.185 31.503-31.503v-31.503c-0.188-69.525-56.49-125.837-125.993-126.042h-1008.148c-69.523 0.205-125.825 56.517-126.012 126.025v31.521c0 17.318 14.155 31.503 31.503 31.503h471.040c-0.482-28.612 27.708-63.006 64.512-63.006h119.718c35.539 0 63.036 24.004 64.452 63.006zM706.078 510.554l70.325 70.325-70.325 70.325c-5.708 5.702-9.238 13.582-9.238 22.287s3.531 16.585 9.238 22.287l22.287 22.257c5.701 5.699 13.575 9.223 22.272 9.223s16.571-3.524 22.272-9.223l114.869-114.869c12.318-12.318 12.318-32.256 0-44.574l-114.869-114.869c-5.702-5.708-13.582-9.238-22.287-9.238s-16.585 3.531-22.287 9.238v0l-22.287 22.287c-5.699 5.701-9.223 13.575-9.223 22.272s3.524 16.571 9.223 22.272v0zM517.030 443.753l-114.899 114.869c-5.708 5.702-9.238 13.582-9.238 22.287s3.531 16.585 9.238 22.287v0l114.869 114.869c5.702 5.708 13.582 9.238 22.287 9.238s16.585-3.531 22.287-9.238v0l22.287-22.287c12.288-12.318 12.288-32.226 0-44.574l-70.325-70.325 70.325-70.295c12.288-12.318 12.288-32.256 0-44.574l-22.287-22.287c-5.701-5.699-13.575-9.223-22.272-9.223s-16.571 3.524-22.272 9.223v0z" />
<glyph unicode="&#xe925;" glyph-name="wifi" horiz-adv-x="1440" d="M640.608 20.768c0 39.906 32.35 72.256 72.256 72.256s72.256-32.35 72.256-72.256v0c0-39.906-32.35-72.256-72.256-72.256s-72.256 32.35-72.256 72.256v0zM1106.656 880.608c125.005-53.587 231.72-126.724 321.515-216.747l0.021-0.021-102.176-102.176c-163.776 163.776-381.536 253.952-613.152 253.952s-449.376-90.176-613.152-253.952l-102.208 102.176c89.825 90.058 196.551 163.206 315.025 214.289l6.543 2.511c115.645 50.274 250.353 79.522 391.893 79.522 0.668 0 1.335-0.001 2.002-0.002h-0.103c136.544 0 269.024-26.784 393.792-79.552zM201.92 459.52c130.045 130.72 310.062 211.619 508.974 211.619 0.704 0 1.407-0.001 2.11-0.003h-0.108c0.575 0.002 1.257 0.003 1.938 0.003 198.927 0 378.957-80.911 508.974-211.619l0.031-0.031-102.176-102.176c-104.034 104.569-248.042 169.282-407.164 169.282-0.564 0-1.128-0.001-1.692-0.002h0.088c-154.432 0-299.584-60.096-408.768-169.28zM712.896 382.080c119.52 0 227.936-48.608 306.432-127.104l-102.144-102.144c-52.175 52.347-124.346 84.736-204.082 84.736-0.072 0-0.145 0-0.217 0h0.011c-0.061 0-0.133 0-0.206 0-79.736 0-151.907-32.389-204.074-84.728l-0.008-0.008-102.208 102.112c78.27 78.54 186.544 127.136 306.168 127.136 0.093 0 0.185 0 0.278 0h-0.014z" />
<glyph unicode="&#xe926;" glyph-name="training" d="M562.863 356.306c-15.215-4.831-32.725-7.616-50.884-7.616s-35.658 2.782-52.113 7.951l1.231-0.332-224.998 69.127-22.002-176.033c0-54.861 133.368-99.29 297.906-99.29 164.503 0 297.871 44.456 297.871 99.29l-22.002 176.048-225.006-69.127zM981.079 607.51l-432.781 132.949c-10.853 3.443-23.337 5.429-36.285 5.429s-25.437-1.991-37.174-5.677l0.874 0.241-432.812-132.959c-36.511-11.223-36.511-59.52 0-70.733l75.452-23.177c-16.543-20.46-26.729-45.445-27.731-72.77-14.949-8.584-25.458-24.037-25.458-42.466 0-16.726 8.805-30.814 21.497-39.785l-39.589-178.233c-0.378-1.621-0.587-3.483-0.587-5.382 0-13.705 11.107-24.819 24.807-24.822h87.040c15.88 0 27.679 14.723 24.23 30.218l-39.589 178.233c12.685 9.003 21.497 23.069 21.497 39.785 0 17.953-10.034 32.955-24.295 41.687 1.23 23.702 13.571 44.293 31.854 56.802l0.245 0.169 303.418-93.231c14.058-4.302 41.014-9.682 72.596 0l432.781 132.959c36.542 11.265 36.542 59.52 0 70.768z" />
<glyph unicode="&#xe927;" glyph-name="workapp" d="M837.022 130.124l-122.727 38.738-41.265-22.070c-46.276-25.217-101.352-40.045-159.892-40.045-0.185 0-0.371 0-0.556 0h0.028c-188.198 0-340.665 152.467-340.665 340.665 0 188.176 152.467 340.643 340.665 340.643 188.176 0 340.643-152.467 340.643-340.643 0-51.331-11.329-101.725-33.683-147.935l-17.931-37.191zM512.61 943.66c-274.083-0.022-496.248-222.23-496.248-496.248 0-274.083 222.186-496.248 496.248-496.248 274.040 0 496.226 222.186 496.226 496.248 0 274.040-222.186 496.248-496.226 496.248zM368.662 545.127v64.948h287.853v-64.948zM368.662 400.177v64.948h219.092v-64.926zM368.662 255.227v64.948h143.948v-64.926z" />
<glyph unicode="&#xe928;" glyph-name="e-learning" horiz-adv-x="1453" d="M1406.514 918.346c-14.639 15.489-35.325 25.131-58.263 25.131-0.722 0-1.442-0.010-2.16-0.029l0.106 0.002c-0.167 0.001-0.365 0.002-0.563 0.002-47.199 0-85.499-38.104-85.816-85.228v-714.914h-152.972l-0.694 329.794v0.727c-0.206 36.422-29.778 65.867-66.229 65.867-0.128 0-0.256 0-0.384-0.001h0.020c-0.373 0.008-0.813 0.013-1.255 0.013-17.97 0-34.172-7.573-45.588-19.701l-0.030-0.032c-11.121-11.716-17.962-27.589-17.962-45.061 0-0.637 0.009-1.272 0.027-1.905l-0.002 0.093v-329.794h-161.23v641.288c0.012 0.544 0.020 1.185 0.020 1.828 0 23.094-9.179 44.045-24.087 59.402l0.020-0.021c-14.639 15.489-35.325 25.131-58.263 25.131-0.722 0-1.442-0.010-2.16-0.029l0.106 0.002c-0.167 0.001-0.365 0.002-0.564 0.002-47.187 0-85.48-38.085-85.816-85.193v-642.443h-153.897l-0.661 329.794v0.727c-0.206 36.422-29.778 65.868-66.229 65.868-0.14 0-0.279 0-0.419-0.001h0.021c-0.36 0.007-0.783 0.012-1.208 0.012-17.974 0-34.18-7.572-45.602-19.7l-0.030-0.032c-11.141-11.72-17.994-27.607-17.994-45.094 0-0.625 0.009-1.249 0.026-1.87l-0.002 0.091v-329.794h-158.324v713.662c0.012 0.536 0.019 1.168 0.019 1.802 0 23.102-9.178 44.061-24.087 59.429l0.021-0.022c-14.641 15.509-35.34 25.164-58.294 25.164-0.723 0-1.444-0.010-2.162-0.029l0.106 0.002c-0.148 0.001-0.322 0.001-0.497 0.001-47.199 0-85.498-38.103-85.816-85.228v-807.206c-0.012-0.537-0.019-1.17-0.019-1.805 0-24.627 10.405-46.823 27.059-62.432l0.047-0.043c17.375-17.177 40.96-26.624 65.404-26.195h1220.773c49.548 0 89.749 40.2 89.749 89.749v806.813c0.013 0.552 0.020 1.203 0.020 1.856 0 23.178-9.245 44.196-24.25 59.569l0.017-0.017z" />
<glyph unicode="&#xe929;" glyph-name="code" horiz-adv-x="1268" d="M966.802 175.543l280.869 263.314c4.599 4.258 7.468 10.327 7.468 17.067s-2.869 12.809-7.453 17.053l-0.015 0.014-280.869 263.534c-4.203 3.923-9.863 6.331-16.085 6.331-6.711 0-12.767-2.801-17.064-7.297l-0.008-0.009-84.773-90.453c-3.919-4.174-6.326-9.808-6.326-16.003 0-6.961 3.039-13.212 7.862-17.5l0.024-0.021 176.591-155.55-176.591-155.355c-4.89-4.282-7.961-10.537-7.961-17.509 0-6.212 2.438-11.855 6.41-16.024l-0.009 0.009 84.773-90.453c4.286-4.605 10.383-7.477 17.149-7.477 6.198 0 11.834 2.409 16.021 6.342l-0.012-0.012zM328.997 176.713l84.797 90.453c3.911 4.173 6.313 9.801 6.313 15.99 0 6.955-3.034 13.202-7.85 17.489l-0.024 0.021-176.591 155.38 176.591 155.355c4.89 4.282 7.961 10.537 7.961 17.509 0 6.212-2.438 11.855-6.41 16.024l0.009-0.009-84.773 90.453c-4.28 4.551-10.341 7.386-17.065 7.386-6.239 0-11.908-2.441-16.104-6.421l0.010 0.010-280.844-263.168c-4.599-4.258-7.468-10.327-7.468-17.067s2.869-12.809 7.453-17.053l0.015-0.014 280.869-263.314c4.169-4.012 9.846-6.483 16.101-6.483 6.735 0 12.8 2.865 17.044 7.443l0.014 0.015zM580.267-26.014l266.069 916.529c0.589 1.954 0.928 4.199 0.928 6.524 0 10.617-7.068 19.582-16.756 22.448l-0.166 0.042-118.906 34.548c-1.952 0.587-4.195 0.926-6.517 0.926-10.625 0-19.596-7.079-22.454-16.778l-0.042-0.166-266.118-916.48c-0.593-1.96-0.934-4.214-0.934-6.546 0-10.619 7.072-19.586 16.762-22.45l0.166-0.042 118.906-34.499c1.965-0.597 4.224-0.941 6.564-0.941 10.603 0 19.557 7.066 22.408 16.746l0.042 0.165z" />
<glyph unicode="&#xe92a;" glyph-name="gallery" horiz-adv-x="1365" d="M170.667 234.667l190.692 190.692c5.793 5.797 13.799 9.383 22.642 9.383s16.848-3.586 22.642-9.383l148.025-148.025 361.358 361.358c5.793 5.797 13.799 9.383 22.642 9.383s16.848-3.586 22.642-9.383l233.358-233.358v-298.667h-1024zM448.019 661.333c0-82.475-66.859-149.333-149.333-149.333s-149.333 66.859-149.333 149.333v0c0 82.464 66.85 149.314 149.314 149.314s149.314-66.85 149.314-149.314v0zM1365.333 64v768c0 70.692-57.308 128-128 128v0h-1109.333c-70.692 0-128-57.308-128-128v0-768c0-70.692 57.308-128 128-128v0h1109.333c70.692 0 128 57.308 128 128v0z" />
<glyph unicode="&#xe92b;" glyph-name="user" horiz-adv-x="910" d="M896 115.2v-83.2c-0.016-53.013-42.987-95.984-95.999-96h-704.001c-53.013 0.016-95.984 42.987-96 95.999v83.201c0 144.213 113.778 260.807 256.398 267.605l95.602-382.805 64 272.014-64 111.986h192l-64-112.014 64-271.986 95.573 382.805c142.62-6.827 256.427-123.392 256.427-267.605zM192 704c0 141.385 114.615 256 256 256v0c141.385 0 256-114.615 256-256v0c0-141.385-114.615-256-256-256v0c-141.385 0-256 114.615-256 256v0z" />
<glyph unicode="&#xe92c;" glyph-name="community" horiz-adv-x="1707" d="M1320.122-62.542h-913.563c-5.027 72.208-10.923 139.885 43.38 202.1 114.781 131.568 261.182 181.124 429.49 178.083 134.734-2.451 257.086-40.836 357.159-136.285 82.292-78.414 98.056-122.384 83.534-243.898zM862.798 475.276c-134.237 0.217-227.949 96.38-227.98 233.906 0 124.463 99.7 222.487 227.514 223.604 131.724 1.148 231.052-99.793 229.81-233.534-1.241-129.645-98.025-224.194-229.345-223.977zM1361.92 550.338c-105.503 0.31-191.519 87.257-190.96 193.008 0.559 102.896 86.575 188.447 190.588 189.564 104.851 1.117 193.319-86.326 193.381-191.054 0.031-105.1-87.35-191.829-193.008-191.519zM556.653 741.547c-0.155-105.1-88.312-191.984-193.939-191.085-103.269 0.838-190.154 88.312-190.061 191.302 0.093 104.572 89.584 192.543 194.219 190.898 104.076-1.645 189.905-88.126 189.781-191.147zM1703.657 84.325h-306.114c-48.283 113.633-135.292 190.402-246.008 249.918 44.249 36.15 94.146 50.331 145.998 56.972 140.847 18.029 263.509-16.943 360.572-126.293 45.987-51.79 60.168-110.344 45.552-180.596zM24.886 85.008c-16.477 73.542 1.458 134.578 52.379 188.416 114.285 120.77 303.787 158.72 454.253 88.436 14.46-6.734 27.865-15.67 43.256-24.421-161.047-112.454-204.862-157.603-245.139-252.432z" />
<glyph unicode="&#xe92d;" glyph-name="eco-green" horiz-adv-x="1124" d="M1087.988 289.979c-10.98 9.295-25.304 14.947-40.948 14.947s-29.967-5.651-41.041-15.024l0.093 0.077-177.452-141.961c-20.709-16.741-47.362-26.874-76.381-26.874-0.13 0-0.259 0-0.389 0.001h-226.883c-16.966 0-30.72 13.754-30.72 30.72s13.754 30.72 30.72 30.72h150.303c0.394-0.009 0.859-0.014 1.325-0.014 30.745 0 56.417 21.717 62.514 50.647l0.074 0.417c0.568 3.139 0.893 6.751 0.893 10.44 0 33.946-27.519 61.465-61.465 61.465-0.024 0-0.048 0-0.073 0h-307.121c-54.103-0.034-103.754-19.072-142.644-50.798l0.408 0.323-89.263-72.379h-106.471c-16.873-0.155-30.5-13.835-30.57-30.713v-184.277c0.042-16.949 13.771-30.677 30.716-30.72h684.835c0.043 0 0.095 0 0.146 0 29.116 0 55.866 10.131 76.917 27.059l-0.238-0.185 290.217 232.273c14.136 11.34 23.109 28.612 23.109 47.98 0 18.22-7.941 34.586-20.55 45.825l-0.061 0.053zM441.319 682.821c61.989-31.769 108.794-78.523 143.959-137.516-47.179-43.657-107.295-34.042-137.591 12.438-10.989 16.834-20.105 34.866-30.071 52.374-23.427 41.26-54.222 75.276-96.081 98.554-1.124 0.599-1.998 1.598-4.82 3.946 16.784 4.021 31.969 8.092 47.304 11.289 47.004 9.74 94.358 15.135 142.236 7.018 39.886-6.768 73.603-25.3 99.902-56.045 19.781-23.152 25.375-50.126 15.984-79.348-1.998-6.319-0.824-10.24 3.247-14.786 7.043-7.917 13.537-16.284 21.254-25.725 5.195 13.037 9.191 24.976 14.636 36.19 7.218 14.836 15.735 29.072 23.252 43.757 1.299 2.498 1.748 7.143 0.3 9.091-41.584 56.57-29.122 119.383 9.091 172.581 43.333 60.291 103.524 94.058 173.78 112.565 72.504 19.131 146.432 25.2 221.134 23.977 0.949 0 1.873-0.25 3.671-0.549-0.724-1.598-1.049-3.122-1.948-4.171-48.553-56.919-78.124-123.679-100.901-194.036-8.741-26.849-17.183-53.847-27.398-80.172-31.669-81.495-106.771-114.463-188.666-83.568-5.445 2.048-10.814 4.246-17.333 6.843 16.509 49.701 40.136 95.232 68.458 138.415 28.472 43.408 61.94 82.644 99.453 119.259-3.746-1.873-7.568-3.596-11.239-5.62-42.459-23.477-76.875-56.37-107.545-93.459-34.815-42.039-64.929-89.915-88.384-141.461l-1.628-3.997c-14.96-33.243-21.329-68.783-24.176-104.898-2.123-26.874-3.072-53.822-4.62-81.57h-56.77c0 16.184-0.35 32.318 0.125 48.453 0.3 9.366 2.597 18.732 2.747 28.073 0.1 6.569-0.524 13.787-3.247 19.606-24.601 52.699-58.168 98.329-106.896 131.497-20.837 14.365-45.432 24.987-71.954 30.263l-1.25 0.207c-2.622 0.5-5.37 0.35-8.042 0.524z" />
<glyph unicode="&#xe92e;" glyph-name="flag" horiz-adv-x="910" d="M563.627 841.301l-23.751 118.699h-534.187v-1009.010h118.727v415.46h332.373l23.723-118.699h415.488v593.55z" />
<glyph unicode="&#xe92f;" glyph-name="celebrate" horiz-adv-x="1047" d="M195.129 240.356c0.182-3.755 0.523-7.509 0.523-11.264 0.046-45.215-0.205-90.431 0.228-135.646 0.091-8.442-2.731-12.538-10.308-16.065-30.265-14.063-60.234-28.9-92.251-42.098l99.442 205.71 2.367-0.637zM283.034 359.026l3.186 2.503c3.436-4.437 6.463-9.239 10.354-13.198 21.732-22.118 43.85-43.873 65.308-66.241 3.482-3.641 6.098-9.694 6.19-14.7 0.569-30.652 0.455-61.303 0.068-91.955-0.068-3.891-2.094-9.785-5.006-11.287-25.919-13.289-52.247-25.805-80.1-39.367zM525.653 194.23c0.41 13.198-5.939 23.006-14.882 31.926-74.638 74.502-149.208 149.094-223.778 223.687-25.987 25.987-55.159 21.231-71.202-11.901-46.854-96.688-93.571-193.422-140.356-290.179-24.462-50.586-49.152-101.103-73.273-151.871-11.605-24.417-0.774-49.63 23.552-56.73 11.674-3.413 22.3-0.296 32.927 4.847 99.874 48.469 199.839 96.711 299.782 145.044 47.4 22.915 94.8 45.83 142.245 68.676 15.451 7.418 24.462 19.046 24.986 36.5zM418.588 393.023c4.983 7.373 8.966 15.701 15.087 21.959 77.141 78.575 154.601 156.854 231.993 235.179 35.044 35.499 70.042 71.066 105.244 106.405 4.187 4.21 9.102 8.192 14.404 10.604 10.604 4.779 22.3 1.252 29.81-7.737 7.054-8.511 8.238-21.686 2.367-30.948-2.292-3.352-4.778-6.278-7.536-8.925l-0.019-0.018c-112.913-114.392-225.872-228.693-338.716-343.154-9.125-9.239-18.955-15.11-32.336-10.468-10.786 3.777-17.818 13.904-20.298 27.102zM691.018 392.704c68.358-1.32 133.234-28.376 189.053-78.12 8.055-7.168 13.995-15.428 12.311-26.897-1.502-10.308-7.145-18.091-16.885-21.663-10.9-4.005-20.844-1.593-29.582 6.485-25.739 24.166-56.818 42.974-91.249 54.448l-1.753 0.506c-66.901 21.618-129.911 10.581-190.282-22.528-8.738-4.801-16.976-10.49-25.714-15.246-13.517-7.396-28.991-3.55-36.591 8.67-7.828 12.584-5.006 28.217 7.851 36.705 53.385 35.203 111.275 56.98 182.841 57.64zM409.759 655.394c-1.365 43.19-13.858 81.988-41.461 115.553-10.741 13.039-9.694 29.036 2.025 39.049 11.787 10.103 27.534 8.875 38.821-4.187 29.992-34.679 46.353-75.526 51.905-120.741 8.078-65.809-9.58-126.225-39.982-183.66-8.306-15.701-17.931-30.743-27.466-45.739-9.876-15.519-26.169-20.116-39.14-11.765-14.108 9.079-16.612 25.168-5.916 41.097 26.556 39.663 47.809 81.692 56.411 129.115 2.458 13.608 3.254 27.511 4.779 41.279zM283.466 795.682c-6.804 0.364-11.833 5.279-14.268 13.107-2.89 9.17-5.848 18.318-8.192 27.602-2.276 8.92-7.805 14.108-16.361 16.521l-25.646 7.282c-9.034 2.64-15.542 7.964-15.428 17.931 0.091 9.466 6.258 14.655 14.95 17.158 8.875 2.549 17.749 5.188 26.647 7.691 7.826 1.872 13.862 7.947 15.651 15.651l0.028 0.141c2.571 9.626 5.461 19.16 8.488 28.649 2.503 7.942 7.828 12.447 16.498 12.516 8.784 0.114 14.040-4.756 16.657-12.425 3.118-9.079 5.871-18.295 8.169-27.602 2.389-9.785 8.488-15.155 17.931-17.613 8.26-2.162 16.43-4.597 24.622-7.031 8.579-2.549 14.837-7.509 14.882-17.158 0.046-9.512-5.689-14.928-14.404-17.545-7.828-2.344-15.588-5.12-23.575-6.758-11.605-2.367-17.749-9.33-20.389-20.48-2.071-8.647-4.597-17.203-7.487-25.6-2.685-7.805-8.306-12.242-18.773-12.060zM895.954 759.296c-6.895 7.509-12.971 11.924-15.929 17.886-3.868 7.851-5.507 16.839-7.669 25.486-2.549 10.286-8.351 16.748-19.001 19.183-8.647 1.98-17.089 4.87-25.577 7.509-8.306 2.617-13.358 7.873-13.335 17.067 0.023 9.33 5.416 14.29 13.653 16.839 9.148 2.867 18.318 5.689 27.58 8.192 8.42 2.23 13.426 7.418 15.724 15.701 2.549 9.239 5.166 18.5 8.033 27.648 2.594 8.192 7.76 13.517 16.998 13.517 9.193-0.046 14.473-5.211 17.067-13.471 2.731-8.806 5.325-17.681 7.714-26.624 2.435-9.057 7.76-14.791 17.021-17.158 8.966-2.276 17.818-5.006 26.624-7.782 8.124-2.571 13.835-7.487 13.881-16.725 0.023-9.057-5.006-14.473-13.38-17.044-8.829-2.708-17.613-5.689-26.578-7.896-9.739-2.367-15.223-8.238-17.704-17.749-2.412-9.284-4.369-18.955-8.579-27.42-2.935-5.848-9.375-9.944-16.543-17.135zM964.972 118.591c-13.471 0.387-18.796 5.621-21.39 13.813-2.685 8.465-5.006 17.067-7.305 25.646-2.617 9.785-8.26 16.088-18.5 18.432-8.647 2.002-17.089 4.847-25.577 7.509-8.192 2.549-13.653 7.509-13.608 16.816 0.046 9.193 5.074 14.404 13.426 16.93 9.216 2.776 18.364 5.666 27.625 8.192 8.329 2.276 13.54 7.259 15.792 15.633 2.412 8.943 5.279 17.727 7.828 26.624 2.503 8.715 7.691 14.814 17.067 15.041 10.103 0.25 15.246-6.44 17.863-15.428 2.389-8.192 4.938-16.338 7.054-24.576 2.321-9.125 7.578-14.95 16.839-17.362 8.92-2.344 17.749-5.188 26.578-7.851 8.738-2.594 14.359-7.942 14.222-17.545-0.159-9.125-5.666-14.154-13.972-16.612-8.875-2.617-17.636-5.598-26.624-7.828-9.33-2.321-14.541-8.124-16.998-17.158-2.503-9.262-4.324-18.933-8.488-27.443-2.844-5.848-9.148-10.058-11.833-12.834zM501.942 606.834c0.546 1.82 1.434 6.007 3.026 9.876 11.059 26.624 22.209 53.157 33.428 79.69 6.372 15.11 17.658 20.821 30.015 15.428 12.015-5.234 15.838-17.089 9.785-31.63-11.583-27.921-23.165-55.842-35.203-83.581-4.87-11.241-14.518-15.792-24.94-13.198-10.24 2.594-16.27 10.422-16.111 23.415zM765.11 491.804c-2.594-2.935-6.554-11.127-12.902-14.017-29.127-13.244-58.846-25.259-88.519-37.183-2.429-1.078-5.263-1.706-8.244-1.706-8.695 0-16.142 5.341-19.24 12.922l-0.050 0.139c-4.597 10.695-0.523 22.892 10.877 27.83 12.63 6.421 42.207 18.952 72.055 30.949l17.625 6.256c14.791 5.78 28.74-4.892 28.399-25.19zM675.703 222.447c-1.934-16.043-14.996-27.079-28.786-22.665-29.235 9.35-50.538 17.174-71.515 25.637l7.253-2.585c-10.627 4.142-14.746 14.905-11.605 25.714 2.913 10.172 13.335 17.454 24.189 14.108 22.756-6.986 45.284-14.905 67.22-24.030 5.689-2.344 8.897-10.627 13.244-16.156zM271.974 620.282c9.648-0.273 16.338-5.234 19.615-13.949 7.509-20.002 14.814-40.050 21.55-60.302 4.164-12.607-1.547-24.371-12.447-28.126-11.56-3.982-23.552 1.82-28.217 14.427-3.291 7.077-10.441 26.744-17.258 46.566l-3.814 12.758c-5.006 15.019 5.302 28.831 20.571 28.626zM824.548 551.834c0.021 0 0.046 0 0.071 0 11.601 0 21.026-9.315 21.206-20.873v-0.017c0.159-12.288-10.832-22.46-23.871-22.073-11.302 0.223-20.379 9.437-20.379 20.772 0 0.257 0.005 0.514 0.014 0.769l-0.001-0.037c0.159 12.402 10.012 21.618 22.983 21.458zM906.65 574.362c0.296 12.151 10.763 21.891 23.233 21.618 11.728-0.534 21.034-10.172 21.034-21.983 0-0.208-0.003-0.414-0.009-0.621l0.001 0.030c-0.501-11.332-11.127-21.163-22.915-21.163-11.848 0.279-21.346 9.95-21.346 21.84 0 0.098 0.001 0.196 0.002 0.294v-0.015zM261.825 673.439c-0.483-11.545-9.866-20.745-21.44-20.935h-0.018c-11.901-0.046-22.437 10.763-22.141 22.733 0.547 11.55 9.874 20.75 21.426 21.094l0.033 0.001c11.833 0.068 22.391-10.832 22.141-22.892zM614.923 772.722c0.159-12.015-10.331-23.097-21.959-23.233-11.978 0.090-21.665 9.776-21.754 21.746v0.009c0.205 12.106 9.671 22.005 21.39 22.369 0.313 0.017 0.68 0.026 1.049 0.026 11.619 0 21.061-9.324 21.251-20.898v-0.018zM732.206 167.014c-11.446 0.046-21.845 10.354-22.073 21.891 0 0.014 0 0.030 0 0.047 0 11.985 9.651 21.716 21.606 21.844h0.012c11.537-0.114 22.005-10.422 22.187-21.845-0.075-12.013-9.735-21.745-21.714-21.936h-0.018zM658.432 877.102c-0.182-12.516-10.354-22.596-22.414-22.255-11.433 0.152-20.643 9.456-20.643 20.911 0 0.145 0.001 0.289 0.004 0.433v-0.022c0.068 12.652 9.853 22.983 21.845 23.029 11.719 0.046 21.39-10.012 21.208-22.096zM799.448 96.199c-0.075-0.001-0.163-0.001-0.252-0.001-12.292 0-22.272 9.894-22.413 22.152v0.013c0 11.241 9.739 21.231 21.003 21.572 11.833 0.387 22.505-10.24 22.528-22.391-0.059-11.598-9.31-21.016-20.836-21.344l-0.030-0.001zM177.129 720.725c-12.356-0.114-22.801 10.103-22.574 22.118 0.167 11.547 9.566 20.844 21.138 20.844 0.041 0 0.081 0 0.122 0h-0.006c0.186 0.006 0.405 0.009 0.625 0.009 11.74 0 21.301-9.329 21.675-20.978l0.001-0.034c0.017-0.313 0.026-0.679 0.026-1.047 0-11.55-9.363-20.912-20.912-20.912-0.033 0-0.066 0-0.1 0h0.005z" />
<glyph unicode="&#xe936;" glyph-name="price-tags" horiz-adv-x="1280" d="M1232 960h-384c-26.4 0-63.274-15.274-81.942-33.942l-476.116-476.116c-18.668-18.668-18.668-49.214 0-67.882l412.118-412.118c18.668-18.668 49.214-18.668 67.882 0l476.118 476.118c18.666 18.666 33.94 55.54 33.94 81.94v384c0 26.4-21.6 48-48 48zM992 576c-53.020 0-96 42.98-96 96s42.98 96 96 96 96-42.98 96-96-42.98-96-96-96zM128 416l544 544h-80c-26.4 0-63.274-15.274-81.942-33.942l-476.116-476.116c-18.668-18.668-18.668-49.214 0-67.882l412.118-412.118c18.668-18.668 49.214-18.668 67.882 0l30.058 30.058-416 416z" />
<glyph unicode="&#xeac9;" glyph-name="linkedin1" d="M928 960h-832c-52.8 0-96-43.2-96-96v-832c0-52.8 43.2-96 96-96h832c52.8 0 96 43.2 96 96v832c0 52.8-43.2 96-96 96zM384 128h-128v448h128v-448zM320 640c-35.4 0-64 28.6-64 64s28.6 64 64 64c35.4 0 64-28.6 64-64s-28.6-64-64-64zM832 128h-128v256c0 35.4-28.6 64-64 64s-64-28.6-64-64v-256h-128v448h128v-79.4c26.4 36.2 66.8 79.4 112 79.4 79.6 0 144-71.6 144-160v-288z" />
<glyph unicode="&#xf099;" glyph-name="twitter" horiz-adv-x="951" d="M925.714 717.714c-25.143-36.571-56.571-69.143-92.571-95.429 0.571-8 0.571-16 0.571-24 0-244-185.714-525.143-525.143-525.143-104.571 0-201.714 30.286-283.429 82.857 14.857-1.714 29.143-2.286 44.571-2.286 86.286 0 165.714 29.143 229.143 78.857-81.143 1.714-149.143 54.857-172.571 128 11.429-1.714 22.857-2.857 34.857-2.857 16.571 0 33.143 2.286 48.571 6.286-84.571 17.143-148 91.429-148 181.143v2.286c24.571-13.714 53.143-22.286 83.429-23.429-49.714 33.143-82.286 89.714-82.286 153.714 0 34.286 9.143 65.714 25.143 93.143 90.857-112 227.429-185.143 380.571-193.143-2.857 13.714-4.571 28-4.571 42.286 0 101.714 82.286 184.571 184.571 184.571 53.143 0 101.143-22.286 134.857-58.286 41.714 8 81.714 23.429 117.143 44.571-13.714-42.857-42.857-78.857-81.143-101.714 37.143 4 73.143 14.286 106.286 28.571z" />
<glyph unicode="&#xf09a;" glyph-name="facebook" horiz-adv-x="602" d="M548 944v-150.857h-89.714c-70.286 0-83.429-33.714-83.429-82.286v-108h167.429l-22.286-169.143h-145.143v-433.714h-174.857v433.714h-145.714v169.143h145.714v124.571c0 144.571 88.571 223.429 217.714 223.429 61.714 0 114.857-4.571 130.286-6.857z" />
<glyph unicode="&#xf0e1;" glyph-name="linkedin" horiz-adv-x="878" d="M199.429 593.714v-566.286h-188.571v566.286h188.571zM211.429 768.571c0.571-54.286-40.571-97.714-106.286-97.714v0h-1.143c-63.429 0-104 43.429-104 97.714 0 55.429 42.286 97.714 106.286 97.714 64.571 0 104.571-42.286 105.143-97.714zM877.714 352v-324.571h-188v302.857c0 76-27.429 128-95.429 128-52 0-82.857-34.857-96.571-68.571-4.571-12.571-6.286-29.143-6.286-46.286v-316h-188c2.286 513.143 0 566.286 0 566.286h188v-82.286h-1.143c24.571 38.857 69.143 95.429 170.857 95.429 124 0 216.571-81.143 216.571-254.857z" />
</font>
</defs>
</svg>
