<svg xmlns="http://www.w3.org/2000/svg" width="133" height="35" viewBox="0 0 133 35"><path fill="#fff" d="M25.89 16.722c-2.452 0-4.904.002-7.355-.002-.767-.001-.843-.076-.844-.846-.003-4.86-.003-9.72 0-14.581.001-.768.071-.837.849-.837C23.42.453 28.303.453 33.185.455c.81 0 .876.066.876.874.002 4.84.002 9.678-.001 14.517 0 .806-.07.874-.88.875-2.43.003-4.86.001-7.29.001zM25.95 18.231h7.161c.93 0 .95.016.95.912.002 4.816.003 9.632.001 14.448 0 .843-.06.902-.917.902-4.816.002-9.633.002-14.449 0-.942 0-1.008-.071-1.008-1.026l.001-14.257c0-.932.044-.976.973-.977 2.43-.002 4.86-.001 7.289-.002zM16.285 8.648c0 2.388.002 4.776 0 7.164 0 .884-.03.916-.885.916-4.84.002-9.68.002-14.521-.001-.844 0-.878-.034-.878-.855-.002-4.84-.001-9.68.001-14.52 0-.845.054-.9.913-.9 4.84-.003 9.68-.003 14.521 0 .765 0 .846.077.848.84.004 2.452.001 4.904.001 7.356zM8.157 18.237c2.43 0 4.859-.002 7.288 0 .794.002.83.039.83.833.002 4.837.003 9.674 0 14.511 0 .854-.055.909-.905.91-4.815 0-9.63 0-14.447-.002-.852-.001-.905-.055-.905-.91-.002-4.815-.002-9.63 0-14.446 0-.849.048-.894.916-.895 2.407-.002 4.815 0 7.223 0zM48.002 13.794l1.509-3.697c1.094-2.684 2.177-5.372 3.302-8.043.09-.215.464-.423.717-.437.935-.052 1.876 0 2.813-.03.555-.016.76.204.753.75-.017 1.664-.005 3.326-.005 4.99v10.105c0 .905-.042.944-.928.948-.47.002-.94-.026-1.407.006-.57.04-.735-.214-.732-.753.018-2.643.008-5.287.008-7.931 0-1.205 0-2.41-.14-3.642-.329.822-.658 1.643-.985 2.465-1.22 3.07-2.45 6.137-3.65 9.215-.186.474-.437.658-.943.647-1.678-.034-1.35.168-1.956-1.324-1.427-3.516-2.837-7.038-4.256-10.557a1.382 1.382 0 0 0-.35-.536v1.26c0 3.432.002 6.865 0 10.297 0 .827-.03.85-.874.854-.447.001-.896-.016-1.343.002-.473.02-.65-.197-.627-.655.021-.447.003-.895.003-1.343V2.634c0-1.04.002-1.04 1.068-1.039.831 0 1.664.028 2.494-.01.513-.022.762.184.944.648 1.382 3.534 2.783 7.059 4.18 10.586.106.268.221.533.405.975zM126.228 3.105c-.382-.098-.605-.157-.828-.213-1.206-.3-2.082.296-2.234 1.518-.238 1.915-.238 1.915 1.695 1.915.554 0 1.11-.027 1.663.007.543.034.721-.197.69-.713-.03-.488.007-.98-.008-1.47-.01-.385.165-.584.525-.686a42.16 42.16 0 0 0 1.832-.568c.421-.14.608-.002.607.433 0 .788.018 1.578-.001 2.366-.012.472.183.653.646.635.532-.022 1.066.005 1.599-.006.399-.009.588.156.584.566-.025 2.167.262 1.85-1.722 1.88-.192.002-.415-.059-.569.019-.204.103-.504.311-.506.478-.028 1.876-.043 3.753.015 5.628.03.947.73 1.418 1.693 1.258.31-.051.61-.165 1.047-.288 0 .758.025 1.463-.022 2.164-.009.134-.291.336-.465.357-.819.097-1.66.28-2.462.178-1.8-.23-2.753-1.449-2.786-3.405-.032-1.876-.03-3.753-.002-5.63.01-.594-.2-.793-.779-.769-.83.035-1.664.038-2.494 0-.605-.026-.822.182-.816.804.027 2.643.013 5.288.01 7.932 0 .87-.014.882-.904.885-.448.001-.897-.025-1.343.005-.566.038-.737-.21-.733-.754.019-2.666.01-5.331.007-7.997 0-.847-.016-.859-.854-.866-.213-.002-.457.06-.631-.024-.207-.1-.384-.303-.516-.5-.07-.105-.018-.291-.02-.44-.006-1.425-.006-1.442 1.4-1.47.478-.01.631-.191.63-.65 0-.658-.02-1.332.105-1.971.419-2.123 2.28-3.515 4.432-3.33 1.641.14 1.517-.051 1.515 1.614v1.108zM108.62 12.473c.098-.65.137-1.097.235-1.53.343-1.521 1.425-2.408 2.93-2.432 1.627-.026 2.653.727 3.038 2.334.28 1.173.262 2.363-.153 3.517-.421 1.168-1.302 1.78-2.58 1.819-1.409.043-2.53-.549-2.955-1.68-.265-.706-.377-1.468-.515-2.028zm-2.928.091c-.062 1.49.304 2.998 1.452 4.222 1.646 1.756 3.733 2.115 5.993 1.732 2.396-.405 3.949-1.812 4.62-4.15.452-1.578.46-3.192-.142-4.713-.326-.824-.847-1.665-1.503-2.247-2.025-1.797-5.875-1.868-8.062-.251-1.765 1.304-2.4 3.133-2.358 5.407zM92.102 13.824c-.315 1.452-1.186 2.212-2.638 2.345-1.45.132-2.607-.487-3.125-1.803-.613-1.562-.56-3.129.294-4.608.584-1.014 1.908-1.464 3.33-1.192 1.06.204 1.94 1.144 2.16 2.346.088.48.12.969.182 1.492-.063.455-.1.945-.203 1.42zm2.193-5.42c-1.505-2.227-3.975-2.67-6.748-2.202a5.141 5.141 0 0 0-2.71 1.352c-1.477 1.392-1.957 3.143-1.908 5.1.058 2.316.862 4.255 3.036 5.3 2.332 1.122 4.703 1.034 6.87-.436 1.828-1.24 2.493-3.116 2.434-5.385.052-1.266-.19-2.57-.974-3.73zM103.922 9.15c-.698-.243-1.243-.486-1.815-.617a5.168 5.168 0 0 0-1.455-.1c-.54.033-1.005.29-1.135.868-.132.59.123 1.06.652 1.328.626.318 1.284.571 1.916.878 1.164.566 2.17 1.267 2.407 2.686.298 1.788-.564 3.349-2.3 4.02-1.733.67-3.472.526-5.192-.068-.19-.065-.45-.288-.46-.451-.047-.797-.021-1.599-.021-2.542.368.19.6.319.839.434 1.05.505 2.132.95 3.31.567.35-.114.829-.486.856-.777.037-.387-.208-.933-.515-1.188-.462-.384-1.078-.586-1.638-.844-1.133-.524-2.252-1.042-2.679-2.376-.546-1.707.08-3.408 1.657-4.268 1.662-.906 3.402-.817 5.147-.272.168.053.398.265.407.413.041.736.019 1.476.019 2.31zM73.824 9.501c-1.312-.896-2.592-1.271-3.914-.85-.665.213-1.326.716-1.776 1.263-1.048 1.27-.984 3.759.023 5.043.68.866 1.625 1.32 2.69 1.194.967-.114 1.904-.483 2.939-.763a6.12 6.12 0 0 1-.038 2.34c-.025.114-.2.22-.327.28-3.055 1.443-8.115.7-8.976-4.245-.544-3.118.847-5.995 3.586-7.194 1.733-.759 3.529-.693 5.306-.11.19.062.455.286.465.449.048.795.022 1.595.022 2.593zM48.899 30.454c0 .704.038 1.411-.019 2.11-.023.276-.187.655-.406.783-2.124 1.248-6.001 1.531-8.163-.862-1.41-1.56-1.715-3.454-1.457-5.44.513-3.938 3.903-6.014 7.795-5.394.337.053.671.125 1.002.207.766.192 1.08.681.967 1.461-.063.434-.22.543-.69.408-.932-.266-1.886-.524-2.845-.602-2.51-.205-4.44 1.803-4.599 4.387-.11 1.808.276 3.483 1.87 4.568 1.364.929 2.888.946 4.398.337.213-.086.432-.428.454-.669.062-.698.015-1.406.03-2.11.01-.477-.232-.637-.674-.626-.49.013-.981-.004-1.472-.002-.534.003-.538-.361-.541-.746-.004-.38.059-.687.54-.685 1.065.003 2.132.001 3.198-.002.432-.002.613.222.61.638-.004.747 0 1.493 0 2.24zM71.593 29.69c-.069.398-.088.967-.272 1.475-.472 1.302-1.241 1.765-2.592 1.673-1.046-.071-1.813-.763-2.065-2.1-.235-1.258-.139-2.509.755-3.555.662-.775 1.526-.912 2.44-.661.926.253 1.445.937 1.61 1.871.068.375.076.76.124 1.297zm-.118-3.794c-.196-.096-.312-.136-.41-.203-1.722-1.163-3.934-.857-5.158.856-1.232 1.727-1.311 3.683-.503 5.593.284.671.903 1.344 1.544 1.693 1.397.76 2.828.63 4.1-.43.103-.085.236-.132.382-.211.05.133.1.21.103.288.026.726.553.62 1.017.62.497-.003.667-.295.663-.746-.003-.383 0-.767 0-1.15 0-3.429.004-6.858-.003-10.286-.002-.717-.17-.836-.873-.871-.644-.033-.802.286-.79.856.021 1.086.007 2.172 0 3.258-.002.221-.042.443-.072.733zM78.744 7.878c.743-1.181 1.734-1.811 3.102-1.786.855.016.998.178 1.003 1.016.004.635.001 1.27.001 2.028l-.8-.235c-1.293-.382-2.438.12-2.915 1.376a5.782 5.782 0 0 0-.372 1.862 126.04 126.04 0 0 0-.007 5.434c.01.608-.189.86-.806.815a14.942 14.942 0 0 0-1.534-.006c-.422.013-.63-.142-.63-.59.007-3.623.007-7.246 0-10.87 0-.436.185-.615.618-.6a17.38 17.38 0 0 0 1.598-.004c.55-.034.797.17.746.733-.025.273-.004.55-.004.827zM79.515 25.186c-.002-.638-.037-1.28.02-1.912.017-.192.28-.509.443-.516.719-.035 1.45-.045 2.16.06 1.191.178 1.78.847 1.838 1.928.078 1.445-.405 2.361-1.564 2.655-.772.196-1.594.202-2.396.272-.397.034-.505-.228-.502-.573.004-.638 0-1.276 0-1.914zm-1.7 2.323v5.559c0 .043.005.085.002.128-.047.684.422.656.892.667.483.011.83-.05.811-.675-.032-1.085.02-2.173-.019-3.258-.022-.616.2-.78.804-.816 1.01-.059 2.057-.115 3.008-.421 1.753-.566 2.69-2.376 2.446-4.365-.202-1.647-1.447-2.85-3.294-3.026-1.288-.122-2.592-.071-3.887-.132-.592-.028-.78.204-.771.78.025 1.853.009 3.706.009 5.559zM92.691 30.161c-.168 1.812-1.843 2.98-3.306 2.307-.54-.248-.797-.66-.806-1.257-.01-.596.196-1.094.78-1.244.92-.237 1.86-.41 2.802-.516.148-.016.352.461.53.71zm-4.77-3.222c.256-.143.442-.297.655-.357.808-.229 1.615-.515 2.44-.609.663-.075 1.156.362 1.394 1.014.3.823.162 1.055-.706 1.184-.885.13-1.783.202-2.65.41-1.226.292-2.008 1.185-2.135 2.273-.154 1.321.27 2.238 1.304 2.817 1.056.592 2.747.456 3.694-.297.17-.136.34-.276.574-.467.03.223.048.325.058.429.063.724.625.477 1.027.517.403.04.746-.064.738-.561-.035-2.086-.014-4.177-.147-6.257-.083-1.303-.964-2.088-2.229-2.395-1.092-.266-2.12-.01-3.138.308-1.065.334-1.232.723-.88 1.991zM122.23 28.336c-.593 0-1.187.003-1.782 0-.283-.003-.493-.05-.433-.44.154-.993 1.17-1.897 2.236-1.951 1.176-.06 1.963.538 2.224 1.658.122.524-.026.765-.589.74-.55-.023-1.103-.004-1.655-.004v-.003zm-2.235 1.464c.215-.012.443-.034.671-.035 1.406-.003 2.812.007 4.217-.004 1.587-.012 1.385.194 1.327-1.416-.056-1.54-.597-2.87-2.147-3.475-1.642-.64-3.176-.403-4.499.831-1.119 1.043-1.424 2.393-1.386 3.84.03 1.16.28 2.25 1.054 3.208 1.281 1.588 4.373 1.515 5.76.762.76-.413.915-.89.567-1.66-.829.266-1.631.615-2.47.774-1.774.334-3.31-1.074-3.094-2.825zM52.276 29.676c.112-1.252.406-2.331 1.6-2.971 1.534-.821 3.367.058 3.77 1.754.22.921.261 1.788-.057 2.685-.36 1.018-1.153 1.665-2.157 1.699-1.422.048-2.317-.42-2.736-1.517-.201-.527-.284-1.098-.42-1.65zm7.14-.004v-.255c-.003-3.155-2.234-5.1-5.801-4.168-1.706.446-2.976 2.109-2.928 4.59.06 3 2.333 4.908 5.277 4.363 2.213-.41 3.445-2.025 3.452-4.53zM110.494 25.496c.848-.32 1.643-.734 2.486-.915 1.469-.315 2.9.643 3.272 2.102.136.531.216 1.09.226 1.638.028 1.62-.009 3.24.018 4.86.01.617-.313.69-.806.684-.494-.006-.886-.031-.873-.696.026-1.3.008-2.6.004-3.901 0-.384 0-.768-.021-1.151-.07-1.212-.741-2.06-1.699-2.166-1.16-.127-2.215.555-2.537 1.7a5.82 5.82 0 0 0-.196 1.45 85.59 85.59 0 0 0 .003 4.029c.017.638-.288.737-.82.738-.55 0-.885-.094-.879-.763.025-2.515.01-5.031.01-7.547 0-.418-.033-.831.593-.82 1.019.016 1.227-.059 1.206.724-.002.053.048.107.013.034zM59.631 12.31c0-1.749.015-3.497-.008-5.246-.007-.547.172-.785.737-.747.488.034.983.038 1.47 0 .609-.045.774.244.77.797-.013 2.495-.005 4.99-.005 7.484 0 1.024-.014 2.047.004 3.07.009.519-.199.741-.722.716-.489-.025-.982-.03-1.47.002-.573.037-.797-.17-.787-.767.03-1.77.011-3.54.011-5.31zM104.855 22.213c0 .663.018 1.276-.006 1.886-.017.455.133.684.62.645.296-.024.597.014.894-.007.534-.039.82.093.818.729-.002.653-.33.715-.843.717-1.694.004-1.468-.215-1.482 1.504-.009 1.044-.004 2.088-.001 3.132.003 1.363.322 2.051 1.972 1.688.058-.013.123.006.18.01.39.96.158 1.371-.825 1.475-1.9.202-2.907-.7-2.91-2.61 0-1.47-.023-2.94.012-4.41.014-.612-.19-.834-.807-.807-.71.032-.866-.167-.817-.793.032-.429.202-.637.676-.64.934-.006.934-.03.937-.97.003-1.307.003-1.307 1.582-1.55zM61.312 27.53c0-1.874-.004-3.747.002-5.62.002-.758.11-.856.844-.854.72.001.816.094.817.877.004 3.746-.012 7.492.013 11.238.006.905-.378 1.058-1.312.87-.162-.033-.344-.456-.348-.701-.028-1.937-.016-3.874-.016-5.81zM129.67 25.927c.683-.854 1.467-1.377 2.552-1.287.248.02.648.155.69.313.098.371.036.79-.003 1.185-.004.04-.296.09-.446.07-1.54-.204-2.51.432-2.657 1.982-.15 1.585-.103 3.188-.133 4.783-.015.8-.702 1.217-1.404.81-.142-.082-.25-.347-.251-.529-.017-2.641-.007-5.283-.016-7.925-.003-.678.465-.575.886-.59.442-.015.834.012.785.62-.015.188-.002.378-.002.568zM98.371 25.977c.65-.854 1.339-1.444 2.362-1.34.25.026.655.14.697.292.102.372.045.791.014 1.189-.003.043-.251.106-.382.096-1.803-.132-2.712.68-2.752 2.53-.031 1.425.005 2.852-.022 4.278-.005.263-.127.715-.272.75-.394.092-.833.032-1.244-.033-.079-.013-.155-.328-.156-.504-.013-2.639-.01-5.278-.024-7.918-.002-.402.145-.564.557-.583 1.07-.048 1.069-.063 1.222 1.243zM60.986 4.61a1.685 1.685 0 0 1-1.601-1.788c.055-.962.877-1.659 1.876-1.591.958.065 1.67.855 1.614 1.792-.056.94-.9 1.65-1.89 1.587z"/></svg>