<?xml version="1.0" standalone="no"?>
<!DOCTYPE svg PUBLIC "-//W3C//DTD SVG 1.1//EN" "http://www.w3.org/Graphics/SVG/1.1/DTD/svg11.dtd" >
<svg xmlns="http://www.w3.org/2000/svg" xmlns:xlink="http://www.w3.org/1999/xlink" version="1.1">
<metadata></metadata>
<defs>
<font id="schnebel_sans_w02regular" horiz-adv-x="1146" >
<font-face units-per-em="2048" ascent="1638" descent="-410" />
<missing-glyph horiz-adv-x="491" />
<glyph horiz-adv-x="0" />
<glyph unicode="&#xd;" horiz-adv-x="681" />
<glyph unicode=" "  horiz-adv-x="491" />
<glyph unicode="&#x09;" horiz-adv-x="491" />
<glyph unicode="&#xa0;" horiz-adv-x="491" />
<glyph unicode="!" horiz-adv-x="774" d="M188 172q0 82 59.5 139.5t143.5 57.5q80 0 137.5 -58.5t57.5 -140.5q0 -84 -57.5 -141.5t-141.5 -57.5t-141.5 58.5t-57.5 142.5zM197 1407h381l-41 -952h-301z" />
<glyph unicode="&#x22;" horiz-adv-x="1136" d="M150 1407h356l-37 -637h-283zM631 1407h356l-37 -637h-282z" />
<glyph unicode="#" d="M47 397l29 211h127l24 170h-127l31 211h127l47 332h283l-47 -332h147l47 332h283l-47 -332h127l-29 -211h-129l-25 -170h129l-30 -211h-127l-45 -311h-283l43 311h-145l-45 -311h-283l45 311h-127zM485 608h148l24 170h-147z" />
<glyph unicode="$" d="M35 78l86 250q172 -92 383 -99v330q-186 70 -264 127q-182 127 -183 324q0 186 118 297.5t329 126.5v174h149v-176q209 -14 387 -117l-100 -242q-170 86 -287 101v-324q184 -72 256 -117q102 -66 148.5 -146.5t46.5 -199.5q0 -279 -242 -373q-72 -29 -209 -41v-178h-149 v174q-295 4 -469 109zM389 1042q0 -39 24.5 -68.5t90.5 -64.5v258q-115 -29 -115 -125zM653 238q119 27 119 133q0 78 -119 131v-264z" />
<glyph unicode="%" horiz-adv-x="1992" d="M53 1040q0 195 104.5 295.5t305.5 100.5q193 0 295 -102.5t102 -293t-103.5 -292t-300 -101.5t-300 101.5t-103.5 291.5zM356 1040q0 -172 100.5 -172t100.5 172q0 82 -25.5 128t-72.5 46q-102 0 -103 -174zM502 0l684 1407h307l-684 -1407h-307zM1135 365q0 195 104 295 t305 100q190 0 292.5 -102.5t102.5 -293t-103 -292t-298 -101.5q-197 0 -300 101.5t-103 292.5zM1438 365q0 -172 98 -172q100 0 100 174q0 82 -25.5 127t-72.5 45q-100 0 -100 -174z" />
<glyph unicode="&#x26;" horiz-adv-x="1417" d="M78 379q0 147 63.5 242.5t214.5 179.5q-55 84 -73.5 141t-18.5 141q0 170 107.5 261.5t310.5 91.5q195 0 296 -89.5t101 -256.5q0 -129 -57 -210t-207 -161l180 -217q100 137 152 291l266 -107q-61 -233 -219 -401l295 -285h-459l-90 94q-145 -123 -377 -123 q-485 0 -485 408zM418 403q0 -84 52 -134t140 -50q74 0 152 51l-254 310q-90 -80 -90 -177zM559 1098q0 -41 13 -67t81 -118q72 45 101.5 86t29.5 99q0 53 -31.5 84.5t-82.5 31.5q-49 0 -80 -32.5t-31 -83.5z" />
<glyph unicode="'" horiz-adv-x="573" d="M109 1407h356l-37 -637h-283z" />
<glyph unicode="(" horiz-adv-x="917" d="M227 590q0 311 82 560t260 474l219 -121q-207 -399 -206 -915q-1 -513 206 -914l-219 -120q-178 225 -260 473.5t-82 562.5z" />
<glyph unicode=")" horiz-adv-x="917" d="M131 -326q207 399 207 916q0 512 -207 913l219 121q178 -225 260 -474t82 -562q0 -311 -82 -560t-260 -474z" />
<glyph unicode="*" d="M82 1110l80 287l268 -94l-16 280h321l-16 -280l268 94l80 -287l-274 -55l190 -219l-254 -193l-156 256l-153 -256l-256 193l192 219z" />
<glyph unicode="+" d="M84 561l33 299h301v334h313v-334h330l-33 -299h-297v-330h-313v330h-334z" />
<glyph unicode="," horiz-adv-x="573" d="M63 -301l82 643h361l-152 -643h-291z" />
<glyph unicode="-" horiz-adv-x="823" d="M80 487l41 299h622l-41 -299h-622z" />
<glyph unicode="." horiz-adv-x="573" d="M88 172q0 82 59.5 139.5t143.5 57.5q80 0 137 -58.5t57 -140.5q0 -84 -58 -141.5t-140 -57.5q-84 0 -141.5 58.5t-57.5 142.5z" />
<glyph unicode="/" horiz-adv-x="573" d="M-51 0l325 1407h351l-326 -1407h-350z" />
<glyph unicode="0" d="M66 704.5q0 378.5 124 555t390 176.5q256 0 378.5 -179.5t122.5 -551.5q0 -377 -122.5 -555.5t-385 -178.5t-385 177.5t-122.5 556zM420 707q0 -250 34.5 -355.5t118.5 -105.5q82 0 118 105.5t36 353.5q0 244 -35 350t-117 106q-84 0 -119.5 -104.5t-35.5 -349.5z" />
<glyph unicode="1" d="M133 1251l402 156h235v-1407h-344v1102l-221 -78z" />
<glyph unicode="2" d="M53 0v244l424 450q199 211 199 342q0 59 -42 92t-118 33q-147 0 -381 -129l-82 258q227 145 506 146q231 0 354 -103.5t123 -298.5q0 -139 -66.5 -260t-232.5 -282l-225 -224h549v-268h-1008z" />
<glyph unicode="3" d="M23 90l86 258q176 -109 368 -108q236 0 236 192q0 111 -78 148q-57 29 -189 28h-116v252h86q127 0 181 39t54 129q0 72 -41 105.5t-129 33.5q-139 0 -319 -90l-84 246q233 113 469 113q225 0 342 -94.5t117 -276.5q0 -106 -33 -166.5t-121 -118.5q119 -59 165 -136 t46 -210q0 -227 -143.5 -345t-419.5 -118q-299 0 -477 119z" />
<glyph unicode="4" d="M8 295v250l617 862h307v-844h198l-16 -268h-182v-295h-342v295h-582zM289 555h321v463z" />
<glyph unicode="5" d="M102 53l72 262q174 -76 318 -75q113 0 172 59t59 172q0 100 -46 153.5t-132 53.5q-113 0 -207 -86l-162 29v786h817v-268h-504v-226q74 25 158 25q211 0 320.5 -120t109.5 -351q0 -252 -135 -374t-416 -122q-250 0 -424 82z" />
<glyph unicode="6" d="M76 637q0 393 141 596t414 203q201 0 373 -86l-80 -246q-133 63 -248 63q-104 0 -158.5 -62.5t-73.5 -205.5q59 45 107.5 60.5t124.5 15.5q199 0 307.5 -125t108.5 -352q0 -225 -88 -353q-119 -174 -414 -174q-156 0 -257.5 48.5t-166.5 152.5q-90 145 -90 465zM430 471 q0 -115 40 -177.5t113.5 -62.5t113.5 62.5t40 179.5q0 115 -38.5 178.5t-110.5 63.5q-158 0 -158 -244z" />
<glyph unicode="7" d="M129 1139v268h928v-195l-494 -1212h-387l502 1139h-549z" />
<glyph unicode="8" d="M49 371q1 250 234 352q-186 109 -187 315q0 182 129 290t348.5 108t348.5 -107.5t129 -292.5q0 -203 -187 -313q233 -104 234 -350q0 -190 -138.5 -296t-386 -106t-386 105.5t-138.5 294.5zM389 420q0 -84 51.5 -136.5t133 -52.5t133 52.5t51.5 136.5q0 78 -50.5 127 t-132.5 49q-86 0 -136 -48t-50 -128zM436 1020q0 -70 37 -110t100.5 -40t100.5 40t37 110q0 72 -37.5 114t-98.5 42q-66 0 -102.5 -42t-36.5 -114z" />
<glyph unicode="9" d="M55 920q0 248 128 382t364 134q338 0 454 -242q70 -141 70 -438q0 -414 -134 -599.5t-433 -185.5q-205 0 -379 82l78 256q147 -70 266 -69q113 0 165 65.5t68 224.5q-102 -57 -213 -57q-209 0 -321.5 117t-112.5 330zM410 952q0 -102 39.5 -160.5t111.5 -58.5t114 59.5 t42 162t-41 162t-111 59.5q-74 0 -114.5 -58.5t-40.5 -165.5z" />
<glyph unicode=":" horiz-adv-x="573" d="M88 172q0 82 59.5 139.5t143.5 57.5q80 0 137 -58.5t57 -140.5q0 -84 -58 -141.5t-140 -57.5q-84 0 -141.5 58.5t-57.5 142.5zM88 829q0 82 59.5 139.5t143.5 57.5q80 0 137 -58.5t57 -140.5t-58 -140t-140 -58q-84 0 -141.5 58t-57.5 142z" />
<glyph unicode=";" horiz-adv-x="573" d="M63 -301l82 643h361l-152 -643h-291zM117 829q0 82 59 139.5t143 57.5q80 0 137.5 -58.5t57.5 -140.5t-58.5 -140t-140.5 -58q-84 0 -141 58t-57 142z" />
<glyph unicode="&#x3c;" d="M100 623v147l944 473v-364l-450 -183l450 -168v-364z" />
<glyph unicode="=" d="M86 328l33 299h942l-33 -299h-942zM86 797l33 299h942l-33 -299h-942z" />
<glyph unicode="&#x3e;" d="M102 164v364l451 183l-451 168v364l945 -461v-145z" />
<glyph unicode="?" horiz-adv-x="948" d="M43 1286q195 150 451 150q205 0 311 -90.5t106 -260.5q0 -139 -69 -241q-33 -49 -129 -152q-86 -90 -102.5 -118.5t-16.5 -81.5v-39h-330v59q0 127 21.5 176t117.5 150q88 92 121 143t33 96t-32.5 72t-88.5 27q-129 0 -297 -121zM223 172q0 82 59.5 139.5t143.5 57.5 q80 0 137.5 -58.5t57.5 -140.5q0 -84 -58.5 -141.5t-140.5 -57.5q-84 0 -141.5 58.5t-57.5 142.5z" />
<glyph unicode="@" horiz-adv-x="1660" d="M90 518q0 373 210 597t558 224q156 0 297 -47t236 -131q180 -162 180 -452q0 -229 -116 -377t-294 -148q-156 0 -209 129q-121 -127 -250 -127q-115 0 -181 72t-66 195q0 209 125 364.5t290 155.5q109 0 166 -90l23 69h186l-86 -393q-16 -76 -16 -113q0 -61 53 -61 q86 0 145.5 95t59.5 231q0 219 -145.5 350t-393.5 131q-272 0 -432 -179t-160 -487q0 -279 136 -407q78 -74 204.5 -116t276.5 -42q225 0 436 84l39 -127q-223 -111 -492 -111q-369 0 -571 168q-209 178 -209 543zM717 457q0 -57 39 -58q63 0 127.5 102.5t64.5 203.5 q0 67 -61 67q-72 0 -129 -127q-41 -92 -41 -188z" />
<glyph unicode="A" horiz-adv-x="1372" d="M-55 0l579 1407h322l581 -1407h-389l-102 279h-545l-100 -279h-346zM489 547h351l-176 481z" />
<glyph unicode="B" horiz-adv-x="1316" d="M150 0v1407h509q293 0 412 -76q129 -84 129 -268q0 -109 -51 -177.5t-164 -113.5q133 -53 188.5 -133t55.5 -219q0 -252 -189 -352q-123 -68 -397 -68h-493zM500 272h129q239 0 239 167q0 114 -88 151q-47 20 -215 20h-65v-338zM500 854h118q119 0 164 23q63 33 64 127 q0 76 -40 104.5t-147 28.5h-159v-283z" />
<glyph unicode="C" horiz-adv-x="1208" d="M82 690q0 346 173 546t472 200q250 0 440 -140l-110 -243q-84 61 -145.5 84.5t-139.5 23.5q-158 0 -244 -120.5t-86 -346.5q0 -229 86 -338.5t263 -109.5h3q144 0 281 112l109 -247q-180 -139 -445 -140q-311 0 -484 189.5t-173 529.5z" />
<glyph unicode="D" horiz-adv-x="1366" d="M150 0v1407h452q182 0 297 -34t197 -109q186 -174 186 -559q0 -387 -186 -562q-82 -76 -197 -109.5t-297 -33.5h-452zM500 281h51q115 0 169 14t95 55q106 111 107 355q0 248 -109 352q-41 41 -94 55t-168 14h-51v-845z" />
<glyph unicode="E" d="M150 0v1407h931l-22 -281h-559v-258h430l-21 -260h-409v-327h596l-15 -281h-931z" />
<glyph unicode="F" horiz-adv-x="1083" d="M150 0v1407h899l-21 -281h-528v-276h418l-21 -268h-397v-582h-350z" />
<glyph unicode="G" horiz-adv-x="1394" d="M82 682q0 358 180 556t508 198q260 0 475 -140l-110 -252q-180 117 -342 117q-350 0 -351 -481q0 -436 314 -436h5q78 0 150 28v248h-211v254h560v-696q-236 -109 -508 -109q-324 0 -497 183.5t-173 529.5z" />
<glyph unicode="H" horiz-adv-x="1431" d="M150 0v1407h350v-533h432v533h350v-1407h-350v594h-432v-594h-350z" />
<glyph unicode="I" horiz-adv-x="690" d="M170 0v1407h350v-1407h-350z" />
<glyph unicode="J" horiz-adv-x="690" d="M-6 -322q106 205 140 346.5t36 393.5v989h350v-928v-45q0 -343 -58 -513q-63 -181 -272 -398z" />
<glyph unicode="K" horiz-adv-x="1325" d="M150 0v1407h350v-502l430 502h409l-508 -559l523 -848h-408l-446 717v-717h-350z" />
<glyph unicode="L" horiz-adv-x="1079" d="M150 0v1407h350v-1126h555l-17 -281h-888z" />
<glyph unicode="M" horiz-adv-x="1785" d="M90 0l135 1407h344l332 -938l332 938h326l137 -1407h-326l-53 860l-309 -860h-232l-307 860l-53 -860h-326z" />
<glyph unicode="N" horiz-adv-x="1439" d="M150 0v1407h313l506 -872v872h321v-1407h-321l-498 852v-852h-321z" />
<glyph unicode="O" horiz-adv-x="1429" d="M82 700q0 365 163 550.5t480 185.5q301 0 462 -189.5t161 -544.5q0 -358 -162 -544.5t-471 -186.5t-471 186.5t-162 542.5zM442 700q0 -219 71 -336.5t202 -117.5t201.5 117.5t70.5 338.5q0 219 -69.5 339t-198.5 120q-276 0 -277 -461z" />
<glyph unicode="P" horiz-adv-x="1204" d="M150 0v1407h407q182 0 280.5 -19.5t168.5 -70.5q161 -122 161 -358q0 -261 -159 -390q-119 -98 -371 -98h-137v-471h-350zM500 739h118q102 0 148.5 47.5t46.5 153.5q0 102 -47 150.5t-148 48.5h-118v-400z" />
<glyph unicode="Q" horiz-adv-x="1429" d="M82 702q0 360 162 547t471 187q307 0 470 -185.5t163 -535.5q0 -199 -47.5 -325t-149.5 -210q131 21 274 23v-203q-324 -2 -594 -25q-66 -4 -106 -4q-358 0 -512 222q-131 188 -131 509zM442 700q0 -219 71 -336.5t202 -117.5t201.5 117.5t70.5 338.5q0 219 -69.5 339 t-198.5 120q-276 0 -277 -461z" />
<glyph unicode="R" horiz-adv-x="1275" d="M150 0v1407h452q281 0 408 -74q176 -102 176 -350q0 -152 -55.5 -245t-178.5 -152q45 -41 70 -76t80 -135l209 -375h-398l-186 383q-51 102 -72.5 123.5t-79.5 23.5h-75v-530h-350zM500 766h139q192 0 192 184q0 98 -46 143.5t-146 45.5h-139v-373z" />
<glyph unicode="S" horiz-adv-x="1118" d="M20 76l86 280q201 -110 396 -110h4q104 0 162.5 33.5t58.5 93.5q0 55 -41 89t-166 85q-236 94 -334 192q-104 109 -104 271q0 211 137 327q117 98 332 99q219 0 444 -113l-100 -264q-188 102 -317 102q-162 0 -162 -117q0 -57 48 -95t200 -99q205 -82 299 -160 q122 -108 122 -294q0 -214 -135 -318q-139 -106 -424 -107q-318 1 -506 105z" />
<glyph unicode="T" horiz-adv-x="1198" d="M33 1126l20 281h1110l-18 -281h-373v-1126h-350v1126h-389z" />
<glyph unicode="U" horiz-adv-x="1374" d="M139 479v928h350v-913q0 -117 25 -164q49 -84 174 -84q137 0 180 96q18 43 19 152v913h350v-928q0 -135 -14.5 -207.5t-53.5 -128.5q-119 -172 -481 -172q-395 0 -500 203q-49 96 -49 305z" />
<glyph unicode="V" horiz-adv-x="1222" d="M-29 1407h379l271 -995l284 995h346l-483 -1407h-322z" />
<glyph unicode="W" horiz-adv-x="1808" d="M2 1407h354l174 -913l256 913h263l264 -948l153 948h340l-327 -1407h-324l-242 903l-247 -903h-347z" />
<glyph unicode="X" horiz-adv-x="1294" d="M-76 0l500 748l-410 659h416l238 -397l233 397h385l-440 -674l452 -733h-415l-277 459l-289 -459h-393z" />
<glyph unicode="Y" horiz-adv-x="1177" d="M-61 1407h409l262 -533l260 533h371l-477 -881v-526h-350v526z" />
<glyph unicode="Z" horiz-adv-x="1112" d="M4 223l637 903h-565l20 281h961l12 -223l-635 -903h668l-17 -281h-1073z" />
<glyph unicode="[" horiz-adv-x="917" d="M252 -356v1890h504v-248h-154v-1397h154v-245h-504z" />
<glyph unicode="\" horiz-adv-x="573" d="M-51 1407h350l326 -1407h-351z" />
<glyph unicode="]" horiz-adv-x="917" d="M162 -111h153v1397h-153v248h504v-1890h-504v245z" />
<glyph unicode="^" d="M-45 618l516 812h205l516 -812h-410l-209 330l-208 -330h-410z" />
<glyph unicode="_" horiz-adv-x="1024" d="M-113 -205h1252v-201h-1252v201z" />
<glyph unicode="`" horiz-adv-x="1024" d="M152 1485h401l223 -377h-272z" />
<glyph unicode="a" horiz-adv-x="1136" d="M63 281q0 252 238 327q97 31 369 33v12q0 113 -168 113q-141 0 -283 -68l-80 215q225 100 441 101q289 0 383 -154q27 -45 35 -99t8 -188v-573h-291l-8 115q-63 -78 -133 -111t-173 -33q-160 0 -249 82t-89 228zM393 309q0 -96 109 -96q80 0 127 51t47 137v54 q-111 0 -174 -15q-109 -27 -109 -131z" />
<glyph unicode="b" horiz-adv-x="1183" d="M137 80v1360l330 71v-573q96 76 240 76q193 0 298 -130t105 -368q0 -281 -119 -413t-370 -132q-244 0 -484 109zM467 274q59 -43 127 -43q176 0 176 275q0 115 -41 181.5t-111 66.5q-86 0 -126 -92q-25 -51 -25 -166v-222z" />
<glyph unicode="c" horiz-adv-x="897" d="M204 877.5q130 136.5 367 136.5q145 0 283 -58l-57 -239q-88 37 -174 37q-209 0 -209 -262q0 -260 225 -261q88 0 176 45l55 -243q-113 -61 -292 -62q-233 0 -355 115q-149 136 -149 399q0 256 130 392.5z" />
<glyph unicode="d" horiz-adv-x="1183" d="M74 457q0 268 125 412.5t358 144.5q76 -1 160 -21v447l330 71v-1511h-269l-24 100q-106 -129 -287 -129q-188 0 -290.5 127t-102.5 359zM414 477q0 -246 149 -246q88 0 129 93q25 50 25 165v228q-57 37 -117 37q-186 0 -186 -277z" />
<glyph unicode="e" horiz-adv-x="1103" d="M74 461q0 264 130 408.5t369 144.5q457 0 457 -484q0 -26 -6 -139h-616q10 -96 68.5 -137t191.5 -41q131 0 295 70l61 -215q-180 -96 -434 -97q-266 0 -391 119t-125 371zM399 596h344q-8 96 -48 140t-120 44q-78 0 -120 -44t-56 -140z" />
<glyph unicode="f" horiz-adv-x="733" d="M-8 725l20 260h152v100q0 213 83 312.5t261 99.5q131 0 276 -61l-73 -230q-4 2 -11 4q-4 2 -8 2l-2 2q-63 23 -102 23q-53 0 -73.5 -33t-20.5 -119v-100h247l-20 -260h-227v-725h-330v725h-172z" />
<glyph unicode="g" horiz-adv-x="1169" d="M74 442q0 279 132 425.5t386 146.5q205 0 442 -86v-805q0 -166 -16.5 -255t-56.5 -157q-125 -203 -457 -203q-236 0 -400 95l78 241q150 -88 299 -88q119 0 171.5 49t52.5 162v82q-90 -78 -234 -78q-193 0 -295 122t-102 349zM414 473q0 -242 143 -242q82 0 123 93 q25 50 25 165v230q-53 35 -111 35q-180 0 -180 -281z" />
<glyph unicode="h" horiz-adv-x="1202" d="M137 0v1440l330 71v-612q70 63 134.5 89t148.5 26q193 0 270 -123q51 -78 51 -264v-627h-330v535q0 102 -12 135q-20 57 -88 57q-55 0 -101 -42t-73 -116v-569h-330z" />
<glyph unicode="i" horiz-adv-x="616" d="M121 1294.5q0 77.5 55 131t135 53.5q76 0 129.5 -54.5t53.5 -132.5t-54.5 -132t-132.5 -54t-132 55.5t-54 133zM143 0v985h330v-985h-330z" />
<glyph unicode="j" horiz-adv-x="616" d="M35 -397q72 139 91 237q17 88 17 265v38v842h330v-819q0 -272 -58.5 -415.5t-219.5 -274.5zM121 1294.5q0 77.5 55 131t135 53.5q76 0 129.5 -54.5t53.5 -132.5t-54.5 -132t-132.5 -54t-132 55.5t-54 133z" />
<glyph unicode="k" horiz-adv-x="1099" d="M137 0v1440l330 71v-854l332 328h360l-387 -356l416 -629h-385l-336 535v-535h-330z" />
<glyph unicode="l" horiz-adv-x="616" d="M143 0v1440l330 71v-1511h-330z" />
<glyph unicode="m" horiz-adv-x="1761" d="M137 0v985h281l16 -123q129 152 305 152q195 0 277 -152q78 86 144.5 119t158.5 33q184 0 262 -123q49 -80 49 -264v-627h-330v535q0 102 -10 135q-18 57 -78 57q-102 0 -163 -158v-569h-330v526q0 109 -10 144q-18 57 -78 57q-102 0 -164 -158v-569h-330z" />
<glyph unicode="n" horiz-adv-x="1202" d="M137 0v985h281l16 -123q131 152 316 152q193 0 270 -123q51 -78 51 -264v-627h-330v535q0 102 -12 135q-23 57 -86 57q-111 0 -176 -158v-569h-330z" />
<glyph unicode="o" horiz-adv-x="1161" d="M74 489q0 254 133 389.5t381 135.5q238 0 368.5 -137.5t130.5 -385t-132 -384t-373.5 -136.5t-374.5 135.5t-133 382.5zM414 492q0 -123 44 -192t124 -69q78 0 122 69t44 192q0 125 -43 193.5t-121 68.5q-82 0 -126 -69t-44 -193z" />
<glyph unicode="p" horiz-adv-x="1183" d="M137 -492v1477h277l16 -100q111 129 283 129q188 0 292.5 -131t104.5 -367q0 -545 -465 -545q-98 0 -178 29v-444zM467 274q59 -43 127 -43q176 0 176 275q0 115 -41 181.5t-111 66.5q-86 0 -126 -92q-25 -51 -25 -166v-222z" />
<glyph unicode="q" horiz-adv-x="1183" d="M74 451q0 276 131 419.5t383 143.5q213 0 459 -86v-1370l-330 -47v538q-96 -78 -240 -78q-195 0 -299 125t-104 355zM414 477q0 -246 149 -246q88 0 129 93q25 50 25 165v230q-55 35 -117 35q-186 0 -186 -277z" />
<glyph unicode="r" horiz-adv-x="831" d="M137 0v985h281l16 -164q160 172 400 172l-23 -268q-135 -10 -217 -56t-127 -141v-528h-330z" />
<glyph unicode="s" horiz-adv-x="909" d="M41 53l63 244q182 -84 314 -84q84 0 84 59q0 29 -19.5 44.5t-134.5 76.5q-147 80 -205.5 150.5t-58.5 169.5q0 143 97.5 222t273.5 79q164 0 313 -56l-47 -233q-117 47 -229 47q-78 0 -78 -51q0 -20 15 -35.5t63 -44.5q197 -113 249 -164q90 -84 90 -203 q0 -145 -110 -229q-102 -74 -295 -74q-203 0 -385 82z" />
<glyph unicode="t" horiz-adv-x="780" d="M-8 725l20 260h162l12 244l306 110v-354h247l-20 -260h-227v-287q0 -131 19 -169t87 -38t133 33l55 -205q-168 -88 -329 -88q-190 0 -254 123q-41 80 -41 305v326h-170z" />
<glyph unicode="u" horiz-adv-x="1179" d="M131 379v606h330v-516q0 -125 20.5 -168t79.5 -43q94 0 152 98v629h329v-985h-297l-14 102q-119 -131 -287 -131q-186 0 -262 129q-51 82 -51 279z" />
<glyph unicode="v" horiz-adv-x="1085" d="M-14 985h368l211 -602l209 602h326l-414 -985h-303z" />
<glyph unicode="w" horiz-adv-x="1622" d="M0 985h360l152 -602l176 602h281l166 -602l159 602h328l-342 -985h-305l-166 586l-172 -586h-320z" />
<glyph unicode="x" horiz-adv-x="1134" d="M-47 0l412 514l-367 471h408l180 -246l178 246h381l-379 -471l399 -514h-407l-213 293l-207 -293h-385z" />
<glyph unicode="y" horiz-adv-x="1073" d="M-4 985h371l176 -610l231 610h330l-619 -1497l-319 100l178 387z" />
<glyph unicode="z" horiz-adv-x="952" d="M8 207l432 518h-368v260h805l20 -211l-428 -514h457v-260h-897z" />
<glyph unicode="{" horiz-adv-x="917" d="M117 573v144h18q84 4 102.5 32.5t16.5 141.5v207q-6 270 64.5 354t302.5 82h206v-205h-28q-135 0 -171 -39.5t-36 -189.5v-152q2 -156 -16.5 -207t-96.5 -96q74 -41 94.5 -96t18.5 -207v-264q0 -150 36 -190t171 -40h28v-204h-206q-231 -2 -303 83t-64 353v319 q4 115 -16.5 143.5t-102.5 30.5h-18z" />
<glyph unicode="|" horiz-adv-x="1024" d="M346 -403v1810h330v-1810h-330z" />
<glyph unicode="}" horiz-adv-x="917" d="M92 -152h29q135 0 171 40t36 190v264q-4 152 16.5 208t93.5 95q-76 47 -94 98.5t-16 204.5v152q0 150 -36 189.5t-171 39.5h-29v205h205q233 2 304 -83t65 -353v-207q-2 -113 16 -141.5t102 -32.5h19v-144h-19q-82 -2 -102 -30.5t-16 -143.5v-319q8 -268 -64 -353 t-305 -83h-205v204z" />
<glyph unicode="~" d="M55 557q43 195 125 279t230 84q94 0 198 -56q109 -59 144 -59q57 0 112 115l228 -68q-45 -145 -105 -213q-102 -121 -252 -121q-61 0 -106 15.5t-135 66.5q-61 33 -101 33q-33 0 -55 -28.5t-45 -98.5z" />
<glyph unicode="&#xa1;" horiz-adv-x="774" d="M188 815q0 82 58.5 139.5t142.5 57.5q82 0 139.5 -58.5t57.5 -140.5q0 -84 -57.5 -141.5t-141.5 -57.5t-141.5 58.5t-57.5 142.5zM197 -422l39 952h301l41 -952h-381z" />
<glyph unicode="&#xa2;" d="M154 877q0 168 65.5 289.5t186.5 181.5q86 43 239 51v203h150v-211q98 -12 196 -58l-57 -239q-59 29 -139 39v-512q82 10 157 49l56 -244q-80 -45 -213 -64v-215h-150v209q-180 8 -276 70q-215 129 -215 451zM494 877q-1 -205 151 -248v501q-152 -41 -151 -253z" />
<glyph unicode="&#xa3;" d="M61 565l23 260h154v111q0 131 19 208t67 138q119 154 374 154q211 0 418 -111l-100 -244q-158 80 -258 80q-94 0 -135 -55t-41 -178v-103h258l-21 -260h-237v-297h538l-20 -268h-1008l21 268h129v297h-181z" />
<glyph unicode="&#xa4;" d="M-12 211l178 186q-68 117 -68 242t68 240l-178 188l159 170l181 -190q104 63 243 63q147 0 250 -63l180 190l158 -170l-176 -188q66 -117 66 -240t-66 -242l176 -186l-158 -170l-180 190q-104 -63 -246 -63q-145 0 -247 63l-181 -190zM381 639q0 -109 50 -169t142.5 -60 t142.5 60t50 169t-50 169t-138 60q-94 0 -145.5 -59t-51.5 -170z" />
<glyph unicode="&#xa5;" d="M-33 1407h400l233 -533l231 533h361l-328 -674h203v-162h-289l-24 -45v-80h313v-161h-313v-285h-351v285h-313v161h313v80l-24 45h-289v162h203z" />
<glyph unicode="&#xa6;" horiz-adv-x="1024" d="M346 0v600h330v-600h-330zM346 776v631h330v-631h-330z" />
<glyph unicode="&#xa7;" d="M84 -102l84 254q188 -100 356 -101q158 0 158 80q0 45 -47 64q-31 14 -180 55q-188 49 -269 125q-82 82 -82 213q0 156 142 266q-94 82 -94 213q0 176 116 279q109 92 312 92q199 0 401 -95l-82 -231q-160 72 -291 72q-127 0 -127 -84q0 -41 47 -64q29 -12 174 -51 q182 -49 263 -125q80 -84 79 -211q0 -152 -129 -260q96 -82 97 -219q0 -170 -113 -272q-113 -100 -342 -101q-240 1 -473 101zM399 653q0 -59 47 -90q29 -18 144 -55l108 -35q51 57 52 111q0 55 -48 86q-16 12 -143 55l-106 39q-4 -6 -11 -12l-6 -11q-37 -43 -37 -88z" />
<glyph unicode="&#xa8;" horiz-adv-x="1024" d="M113 1294q0 72 52 123t126 51q70 0 121 -51t51 -123q0 -74 -51.5 -125t-122.5 -51q-74 0 -125 51.5t-51 124.5zM559 1294q0 72 52 123t126 51q70 0 121 -51t51 -123q0 -74 -51 -125t-125 -51q-72 0 -123 51.5t-51 124.5z" />
<glyph unicode="&#xa9;" horiz-adv-x="1744" d="M102 707q0 334 220 553q221 219 561 219q326 0 542.5 -220.5t216.5 -549.5q0 -334 -218 -552t-552 -218q-332 0 -551 218t-219 550zM252 707q0 -279 176 -460t444 -181q270 0 445.5 181t175.5 462q0 276 -175 459.5t-437 183.5q-276 0 -452.5 -180.5t-176.5 -464.5z M500 692.5q0 188.5 105.5 291.5t297.5 103q160 0 283 -73l-82 -158q-92 49 -162 49q-74 0 -117 -57t-43 -155.5t43 -151t123 -52t174 55.5l80 -150q-121 -88 -305 -88q-193 0 -295 98.5t-102 287z" />
<glyph unicode="&#xaa;" horiz-adv-x="737" d="M41 981q0 154 154 197q68 18 215 18v8q0 66 -84 66q-72 0 -181 -49l-59 139q145 63 287 63q164 0 231 -65q33 -31 43 -69t10 -134v-348h-200l-8 51q-76 -68 -189 -67q-104 0 -161.5 50t-57.5 140zM274 999q0 -55 54 -55q37 0 61.5 31t24.5 78v30q-76 -4 -108 -22.5 t-32 -61.5z" />
<glyph unicode="&#xab;" horiz-adv-x="1234" d="M63 494v90l400 387l170 -146l-182 -286l182 -289l-170 -144zM606 494v90l400 387l170 -146l-183 -286l183 -289l-170 -144z" />
<glyph unicode="&#xac;" d="M113 586v260h903v-653h-330v393h-573z" />
<glyph unicode="&#xad;" horiz-adv-x="823" d="M80 487l41 299h622l-41 -299h-622z" />
<glyph unicode="&#xae;" horiz-adv-x="1282" d="M82 1012q0 246 159.5 403.5t407.5 157.5q236 0 393.5 -160t157.5 -399q0 -242 -158.5 -400.5t-400.5 -158.5t-400.5 158.5t-158.5 398.5zM209 1012q0 -193 122 -318t310 -125t310 126t122 319q0 190 -122 317t-304 127q-193 0 -315.5 -125t-122.5 -321zM436 735v557h201 q135 0 193.5 -40t58.5 -132q0 -113 -101 -157q20 -20 50 -72l92 -156h-189l-77 150q-18 37 -26.5 46t-25.5 9h-6v-205h-170zM606 1044h47q66 0 66 66t-66 66h-47v-132z" />
<glyph unicode="&#xaf;" horiz-adv-x="1024" d="M135 1167v240h754v-240h-754z" />
<glyph unicode="&#xb0;" horiz-adv-x="618" d="M-2 1200q0 129 87 209t228 80q135 0 221.5 -81t86.5 -208t-87.5 -208t-224.5 -81t-224 81t-87 208zM194.5 1200q0.5 -119 115 -119t114.5 119t-113 119q-117 0 -116.5 -119z" />
<glyph unicode="&#xb1;" d="M84 0l33 281h944l-33 -281h-944zM84 659l33 281h301v293h311v-293h332l-33 -281h-299v-294h-311v294h-334z" />
<glyph unicode="&#xb2;" horiz-adv-x="737" d="M27 762v162l270 268q51 51 85 105.5t34 84.5q0 63 -86 64q-84 0 -246 -84l-57 172q166 94 335 94q315 0 316 -246q0 -84 -42 -156.5t-149 -170.5l-122 -113h329v-180h-667z" />
<glyph unicode="&#xb3;" horiz-adv-x="737" d="M14 821l60 164q121 -63 223 -63q63 0 98 27.5t35 76.5q0 53 -34 74.5t-115 21.5h-91v168h70q72 0 103.5 21.5t31.5 68.5q0 72 -92 72q-76 0 -207 -57l-59 164q154 70 307 69q305 0 305 -225q0 -63 -19.5 -99t-72.5 -71q72 -35 99.5 -80t27.5 -127q0 -281 -369 -281 q-182 0 -301 76z" />
<glyph unicode="&#xb4;" horiz-adv-x="1024" d="M324 1108l223 377h401l-352 -377h-272z" />
<glyph unicode="&#xb5;" d="M113 -492v1477h329v-598q0 -78 16.5 -107.5t57.5 -29.5q74 0 178 110v625h330v-985h-313l-9 109q-98 -127 -192 -127q-29 0 -68 14v-440z" />
<glyph unicode="&#xb6;" horiz-adv-x="1433" d="M-47 997q0 125 57.5 226.5t155.5 146.5q57 27 107.5 32t230.5 5h727v-1856h-322v1577h-176v-1577h-321v1035h-37q-94 0 -135 8t-93 39q-92 51 -143 147.5t-51 216.5z" />
<glyph unicode="&#xb7;" horiz-adv-x="573" d="M88 633q0 82 59.5 139t143.5 57q80 0 137 -58t57 -140t-58 -140.5t-140 -58.5q-84 0 -141.5 58.5t-57.5 142.5z" />
<glyph unicode="&#xb8;" horiz-adv-x="1024" d="M248 -516l55 149q70 -35 127 -34q84 0 84 79q0 45 -30.5 71t-104.5 42l-35 47l123 182h178l-90 -131q111 -16 162 -68t51 -153q0 -117 -72.5 -181.5t-206.5 -64.5q-119 0 -241 62z" />
<glyph unicode="&#xb9;" horiz-adv-x="737" d="M70 1516l264 96h174v-850h-252v643l-135 -45z" />
<glyph unicode="&#xba;" horiz-adv-x="737" d="M41 1112q0 147 85 227t243 80q160 0 243.5 -79.5t83.5 -231.5t-84 -232.5t-241 -80.5q-330 0 -330 317zM272 1110q0 -152 97 -152q94 0 94 150q0 147 -96 147q-45 0 -70 -38.5t-25 -106.5z" />
<glyph unicode="&#xbb;" horiz-adv-x="1234" d="M59 250l183 289l-183 286l170 146l400 -387v-90l-400 -388zM602 250l182 289l-182 286l170 146l399 -387v-90l-399 -388z" />
<glyph unicode="&#xbc;" horiz-adv-x="1720" d="M57 1311l265 96h174v-850h-252v643l-135 -45zM303 0l727 1407h248l-725 -1407h-250zM918 162v162l382 526h232v-512h125l-10 -176h-115v-162h-248v162h-366zM1110 326h195v284z" />
<glyph unicode="&#xbd;" horiz-adv-x="1720" d="M45 1311l264 96h174v-850h-252v643l-135 -45zM268 0l727 1407h250l-727 -1407h-250zM979 0v162l270 268q51 51 85 105.5t34 87.5q0 29 -22.5 46t-61.5 17q-82 0 -248 -86l-57 174q152 94 334 94q317 0 317 -245q0 -86 -42 -159t-148 -171l-123 -113h330v-180h-668z" />
<glyph unicode="&#xbe;" horiz-adv-x="1720" d="M29 616l59 164q121 -63 223 -63q63 0 98 27.5t35 76.5q0 53 -33.5 75t-115.5 22h-90v167h69q72 0 104 21.5t32 69.5q0 72 -93 71q-76 0 -206 -57l-60 164q156 70 307 69q305 0 306 -225q0 -63 -19.5 -99t-73.5 -71q72 -35 99.5 -80t27.5 -127q0 -281 -368 -280 q-182 0 -301 75zM397 0l727 1407h248l-725 -1407h-250zM944 162v162l383 526h232v-512h124l-10 -176h-114v-162h-248v162h-367zM1137 326h194v284z" />
<glyph unicode="&#xbf;" horiz-adv-x="948" d="M43 -100q0 139 70 241q33 49 129 152q86 90 102 117.5t16 83.5v38h330v-59q0 -125 -21.5 -176t-115.5 -147q-88 -92 -122 -144.5t-34 -97.5t33 -71.5t88 -26.5q129 0 297 120l96 -231q-195 -150 -450 -150q-205 0 -311.5 90.5t-106.5 260.5zM334 815q0 82 58 140.5 t140 58.5q84 0 141.5 -58.5t57.5 -142.5q0 -82 -59.5 -139.5t-143.5 -57.5q-80 0 -137 58.5t-57 140.5z" />
<glyph unicode="&#xc0;" horiz-adv-x="1372" d="M-55 0l579 1407h322l581 -1407h-389l-102 279h-545l-100 -279h-346zM326 1915h401l223 -377h-272zM489 547h351l-176 481z" />
<glyph unicode="&#xc1;" horiz-adv-x="1372" d="M-55 0l579 1407h322l581 -1407h-389l-102 279h-545l-100 -279h-346zM489 547h351l-176 481zM498 1538l223 377h401l-352 -377h-272z" />
<glyph unicode="&#xc2;" horiz-adv-x="1372" d="M-55 0l579 1407h322l581 -1407h-389l-102 279h-545l-100 -279h-346zM215 1538l307 377h326l309 -377h-336l-135 186l-135 -186h-336zM489 547h351l-176 481z" />
<glyph unicode="&#xc3;" horiz-adv-x="1372" d="M-55 0l579 1407h322l581 -1407h-389l-102 279h-545l-100 -279h-346zM260 1538q27 164 62 240q72 152 225 151q90 0 155 -57q14 -10 78 -82q23 -27 51 -27q54 0 64 152h217q-12 -127 -33 -199q-57 -193 -239 -192q-113 0 -199 94q-39 47 -54.5 59.5t-31.5 12.5 q-66 0 -80 -152h-215zM489 547h351l-176 481z" />
<glyph unicode="&#xc4;" horiz-adv-x="1372" d="M-55 0l579 1407h322l581 -1407h-389l-102 279h-545l-100 -279h-346zM285 1722q0 72 52 123t126 51q70 0 121 -51t51 -123q0 -74 -51.5 -125t-122.5 -51q-74 0 -125 51.5t-51 124.5zM489 547h351l-176 481zM735 1722q0 72 52 123t126 51q70 0 121 -51t51 -123 q0 -74 -51 -125t-125 -51q-72 0 -123 51.5t-51 124.5z" />
<glyph unicode="&#xc5;" horiz-adv-x="1372" d="M-55 0l579 1407h322l581 -1407h-389l-102 279h-545l-100 -279h-346zM397 1688q0 106 78 166.5t215 60.5q129 0 206 -62.5t77 -164.5q0 -106 -80 -171t-209 -65q-127 0 -207 65.5t-80 170.5zM489 547h351l-176 481zM588 1686q0 -102 96 -103q98 0 98 103q0 98 -96 98 q-98 0 -98 -98z" />
<glyph unicode="&#xc6;" horiz-adv-x="1777" d="M-152 0l758 1407h1104l-22 -281h-504v-258h375l-19 -260h-356v-327h540l-14 -281h-876v276h-474l-149 -276h-363zM508 557h326v569h-35z" />
<glyph unicode="&#xc7;" horiz-adv-x="1208" d="M82 690q0 346 173 546t472 200q250 0 440 -140l-110 -243q-84 61 -145.5 84.5t-139.5 23.5q-158 0 -244 -120.5t-86 -346.5q0 -229 86 -338.5t263 -109.5q145 -1 284 112l109 -247q-180 -143 -445 -140l-57 -82q111 -16 162 -68t51 -153q0 -117 -72.5 -181.5 t-206.5 -64.5q-119 0 -241 62l55 149q70 -35 127 -34q84 0 84 79q0 45 -30.5 71t-102.5 42l-37 47l102 150q-238 47 -364.5 228t-126.5 474z" />
<glyph unicode="&#xc8;" d="M150 0v1407h931l-22 -281h-559v-258h430l-21 -260h-409v-327h596l-15 -281h-931zM213 1915h401l224 -377h-273z" />
<glyph unicode="&#xc9;" d="M150 0v1407h931l-22 -281h-559v-258h430l-21 -260h-409v-327h596l-15 -281h-931zM442 1538l224 377h401l-352 -377h-273z" />
<glyph unicode="&#xca;" d="M150 0v1407h931l-22 -281h-559v-258h430l-21 -260h-409v-327h596l-15 -281h-931zM154 1538l307 377h325l310 -377h-336l-135 186l-136 -186h-335z" />
<glyph unicode="&#xcb;" d="M150 0v1407h931l-22 -281h-559v-258h430l-21 -260h-409v-327h596l-15 -281h-931zM229 1722q0 72 52.5 123t126.5 51q70 0 121 -51t51 -123q0 -74 -51.5 -125t-122.5 -51q-74 0 -125.5 51.5t-51.5 124.5zM680 1722q0 72 52 123t126 51q70 0 121 -51t51 -123 q0 -74 -51 -125t-125 -51q-72 0 -123 51.5t-51 124.5z" />
<glyph unicode="&#xcc;" horiz-adv-x="690" d="M-76 1915h402l223 -377h-273zM170 0v1407h350v-1407h-350z" />
<glyph unicode="&#xcd;" horiz-adv-x="690" d="M170 0v1407h350v-1407h-350zM186 1538l224 377h401l-352 -377h-273z" />
<glyph unicode="&#xce;" horiz-adv-x="690" d="M-125 1538l307 377h326l309 -377h-336l-135 186l-135 -186h-336zM170 0v1407h350v-1407h-350z" />
<glyph unicode="&#xcf;" horiz-adv-x="690" d="M-55 1722q0 72 52 123t126 51q70 0 121 -51t51 -123q0 -74 -51 -125t-123 -51q-74 0 -125 51.5t-51 124.5zM170 0v1407h350v-1407h-350zM395 1722q0 72 52 123t126 51q70 0 121 -51t51 -123q0 -74 -51 -125t-125 -51q-72 0 -123 51.5t-51 124.5z" />
<glyph unicode="&#xd0;" horiz-adv-x="1366" d="M-8 604l18 248h140v555h452q182 0 297 -34t197 -109q186 -174 186 -559q0 -387 -186 -562q-82 -76 -197 -109.5t-297 -33.5h-452v604h-158zM500 281h51q117 0 170 14t94 57q106 106 107 353q0 244 -109 352q-41 41 -94 55t-168 14h-51v-274h241l-20 -248h-221v-323z" />
<glyph unicode="&#xd1;" horiz-adv-x="1439" d="M150 0v1407h313l506 -872v872h321v-1407h-321l-498 852v-852h-321zM295 1538q27 164 61 240q72 152 226 151q90 0 155 -57q14 -10 78 -82q23 -27 51 -27q54 0 64 152h217q-12 -127 -33 -199q-57 -193 -240 -192q-113 0 -198 94q-39 47 -54.5 59.5t-31.5 12.5 q-66 0 -80 -152h-215z" />
<glyph unicode="&#xd2;" horiz-adv-x="1429" d="M82 700q0 365 163 550.5t480 185.5q301 0 462 -189.5t161 -544.5q0 -358 -162 -544.5t-471 -186.5t-471 186.5t-162 542.5zM354 1915h402l223 -377h-272zM442 700q0 -219 71 -336.5t202 -117.5t201.5 117.5t70.5 338.5q0 219 -69.5 339t-198.5 120q-276 0 -277 -461z" />
<glyph unicode="&#xd3;" horiz-adv-x="1429" d="M82 700q0 365 163 550.5t480 185.5q301 0 462 -189.5t161 -544.5q0 -358 -162 -544.5t-471 -186.5t-471 186.5t-162 542.5zM442 700q0 -219 71 -336.5t202 -117.5t201.5 117.5t70.5 338.5q0 219 -69.5 339t-198.5 120q-276 0 -277 -461zM526 1538l224 377h401l-352 -377 h-273z" />
<glyph unicode="&#xd4;" horiz-adv-x="1429" d="M82 700q0 365 163 550.5t480 185.5q301 0 462 -189.5t161 -544.5q0 -358 -162 -544.5t-471 -186.5t-471 186.5t-162 542.5zM244 1538l307 377h326l309 -377h-336l-135 186l-135 -186h-336zM442 700q0 -219 71 -336.5t202 -117.5t201.5 117.5t70.5 338.5q0 219 -69.5 339 t-198.5 120q-276 0 -277 -461z" />
<glyph unicode="&#xd5;" horiz-adv-x="1429" d="M82 700q0 365 163 550.5t480 185.5q301 0 462 -189.5t161 -544.5q0 -358 -162 -544.5t-471 -186.5t-471 186.5t-162 542.5zM289 1538q27 164 61 240q72 152 225 151q90 0 156 -57q14 -10 78 -82q23 -27 51 -27q54 0 64 152h217q-12 -127 -33 -199q-57 -193 -240 -192 q-113 0 -198 94q-39 47 -54.5 59.5t-31.5 12.5q-66 0 -80 -152h-215zM442 700q0 -219 71 -336.5t202 -117.5t201.5 117.5t70.5 338.5q0 219 -69.5 339t-198.5 120q-276 0 -277 -461z" />
<glyph unicode="&#xd6;" horiz-adv-x="1429" d="M82 700q0 365 163 550.5t480 185.5q301 0 462 -189.5t161 -544.5q0 -358 -162 -544.5t-471 -186.5t-471 186.5t-162 542.5zM313 1722q0 72 52.5 123t126.5 51q70 0 121 -51t51 -123q0 -74 -51.5 -125t-123.5 -51q-74 0 -125 51.5t-51 124.5zM442 700q0 -219 71 -336.5 t202 -117.5t201.5 117.5t70.5 338.5q0 219 -69.5 339t-198.5 120q-276 0 -277 -461zM764 1722q0 72 52 123t126 51q70 0 121 -51t51 -123q0 -74 -51 -125t-125 -51q-72 0 -123 51.5t-51 124.5z" />
<glyph unicode="&#xd7;" d="M98 973l215 215l260 -260l254 254l215 -215l-254 -254l261 -260l-215 -217l-261 260l-254 -254l-215 217l254 254z" />
<glyph unicode="&#xd8;" horiz-adv-x="1429" d="M82 705q0 354 162 542.5t465 188.5q236 0 391 -107l90 109l156 -138l-107 -126q109 -178 109 -472q0 -354 -161 -542.5t-464 -188.5q-244 0 -391 107l-88 -109l-160 137l106 127q-109 178 -108 472zM442 711q1 -78 11 -160l440 526q-70 84 -178 84q-131 0 -202 -117.5 t-71 -332.5zM539 328q68 -82 176 -82q131 0 201.5 117.5t70.5 338.5q0 52 -10 152z" />
<glyph unicode="&#xd9;" horiz-adv-x="1374" d="M139 479v928h350v-913q0 -117 25 -164q49 -84 174 -84q137 0 180 96q18 43 19 152v913h350v-928q0 -135 -14.5 -207.5t-53.5 -128.5q-119 -172 -481 -172q-395 0 -500 203q-49 96 -49 305zM299 1915h401l224 -377h-273z" />
<glyph unicode="&#xda;" horiz-adv-x="1374" d="M139 479v928h350v-913q0 -117 25 -164q49 -84 174 -84q137 0 180 96q18 43 19 152v913h350v-928q0 -135 -14.5 -207.5t-53.5 -128.5q-119 -172 -481 -172q-395 0 -500 203q-49 96 -49 305zM541 1538l223 377h401l-352 -377h-272z" />
<glyph unicode="&#xdb;" horiz-adv-x="1374" d="M139 479v928h350v-913q0 -117 25 -164q49 -84 174 -84q137 0 180 96q18 43 19 152v913h350v-928q0 -135 -14.5 -207.5t-53.5 -128.5q-119 -172 -481 -172q-395 0 -500 203q-49 96 -49 305zM217 1538l307 377h326l309 -377h-336l-135 186l-135 -186h-336z" />
<glyph unicode="&#xdc;" horiz-adv-x="1374" d="M139 479v928h350v-913q0 -117 25 -164q49 -84 174 -84q137 0 180 96q18 43 19 152v913h350v-928q0 -135 -14.5 -207.5t-53.5 -128.5q-119 -172 -481 -172q-395 0 -500 203q-49 96 -49 305zM287 1722q0 72 52 123t126 51q70 0 121 -51t51 -123q0 -74 -51 -125t-123 -51 q-74 0 -125 51.5t-51 124.5zM737 1722q0 72 52 123t126 51q70 0 121 -51t51 -123q0 -74 -51 -125t-125 -51q-72 0 -123 51.5t-51 124.5z" />
<glyph unicode="&#xdd;" horiz-adv-x="1177" d="M-61 1407h409l262 -533l260 533h371l-477 -881v-526h-350v526zM401 1538l224 377h401l-352 -377h-273z" />
<glyph unicode="&#xde;" horiz-adv-x="1202" d="M150 0v1407h350v-199h57q182 0 280.5 -19.5t168.5 -70.5q162 -117 161 -350q0 -252 -159 -377q-117 -96 -371 -96h-137v-295h-350zM500 565h118q102 0 148.5 44t46.5 142.5t-46 142.5t-146 44h-121v-373z" />
<glyph unicode="&#xdf;" horiz-adv-x="1273" d="M137 0v881q0 203 18.5 298t71.5 164q119 154 394 154q266 0 393 -127q94 -98 94 -240q0 -129 -104 -247q-47 -57 -48 -76q0 -31 52 -70q121 -96 161.5 -168.5t40.5 -191.5q0 -197 -106.5 -301.5t-306.5 -104.5q-111 0 -244 37l78 266q86 -43 153 -43q102 0 103 105 q0 33 -15.5 55.5t-68.5 67.5q-170 141 -170 286q0 86 82 185q45 53 59 81.5t14 67.5q0 74 -40.5 116t-112.5 42q-96 0 -132 -59.5t-36 -221.5v-956h-330z" />
<glyph unicode="&#xe0;" horiz-adv-x="1136" d="M63 281q0 252 238 327q97 31 369 33v12q0 113 -168 113q-141 0 -283 -68l-80 215q225 100 441 101q289 0 383 -154q27 -45 35 -99t8 -188v-573h-291l-8 115q-63 -78 -133 -111t-173 -33q-160 0 -249 82t-89 228zM184 1485h402l223 -377h-272zM393 309q0 -96 109 -96 q80 0 127 51t47 137v54q-111 0 -174 -15q-109 -27 -109 -131z" />
<glyph unicode="&#xe1;" horiz-adv-x="1136" d="M63 281q0 252 238 327q97 31 369 33v12q0 113 -168 113q-141 0 -283 -68l-80 215q225 100 441 101q289 0 383 -154q27 -45 35 -99t8 -188v-573h-291l-8 115q-63 -78 -133 -111t-173 -33q-160 0 -249 82t-89 228zM393 309q0 -96 109 -96q80 0 127 51t47 137v54 q-111 0 -174 -15q-109 -27 -109 -131zM410 1108l223 377h401l-352 -377h-272z" />
<glyph unicode="&#xe2;" horiz-adv-x="1136" d="M63 281q0 252 238 327q97 31 369 33v12q0 113 -168 113q-141 0 -283 -68l-80 215q225 100 441 101q289 0 383 -154q27 -45 35 -99t8 -188v-573h-291l-8 115q-63 -78 -133 -111t-173 -33q-160 0 -249 82t-89 228zM117 1108l307 377h326l309 -377h-336l-135 186l-135 -186 h-336zM393 309q0 -96 109 -96q80 0 127 51t47 137v54q-111 0 -174 -15q-109 -27 -109 -131z" />
<glyph unicode="&#xe3;" horiz-adv-x="1136" d="M63 281q0 252 238 327q97 31 369 33v12q0 113 -168 113q-141 0 -283 -68l-80 215q225 100 441 101q289 0 383 -154q27 -45 35 -99t8 -188v-573h-291l-8 115q-63 -78 -133 -111t-173 -33q-160 0 -249 82t-89 228zM143 1108q27 164 62 240q72 152 225 151q90 0 156 -57 q14 -10 78 -82q23 -27 51 -27q53 0 63 152h217q-12 -127 -32 -199q-57 -193 -240 -192q-113 0 -199 94q-39 45 -54 58.5t-32 13.5q-66 0 -80 -152h-215zM393 309q0 -96 109 -96q80 0 127 51t47 137v54q-111 0 -174 -15q-109 -27 -109 -131z" />
<glyph unicode="&#xe4;" horiz-adv-x="1136" d="M63 281q0 252 238 327q97 31 369 33v12q0 113 -168 113q-141 0 -283 -68l-80 215q225 100 441 101q289 0 383 -154q27 -45 35 -99t8 -188v-573h-291l-8 115q-63 -78 -133 -111t-173 -33q-160 0 -249 82t-89 228zM182 1294q0 72 52 123t126 51q70 0 121 -51t51 -123 q0 -74 -51 -125t-123 -51q-74 0 -125 51.5t-51 124.5zM393 309q0 -96 109 -96q80 0 127 51t47 137v54q-111 0 -174 -15q-109 -27 -109 -131zM629 1294q0 72 52 123t126 51q70 0 121 -51t51 -123q0 -74 -51 -125t-125 -51q-72 0 -123 51.5t-51 124.5z" />
<glyph unicode="&#xe5;" horiz-adv-x="1136" d="M63 281q0 252 238 327q97 31 369 33v12q0 113 -168 113q-141 0 -283 -68l-80 215q225 100 441 101q289 0 383 -154q27 -45 35 -99t8 -188v-573h-291l-8 115q-63 -78 -133 -111t-173 -33q-160 0 -249 82t-89 228zM291 1331q0 106 78 167t215 61q129 0 205.5 -62.5 t76.5 -165.5q0 -106 -79.5 -170.5t-208.5 -64.5q-127 0 -207 65.5t-80 169.5zM393 309q0 -96 109 -96q80 0 127 51t47 137v54q-111 0 -174 -15q-109 -27 -109 -131zM481 1329q0 -102 97 -102q98 0 98 102q0 98 -96 98q-98 0 -99 -98z" />
<glyph unicode="&#xe6;" horiz-adv-x="1673" d="M63 281q0 256 242 329q98 31 365 31v12q0 113 -168 113q-141 0 -283 -66l-80 215q225 98 432 99q184 0 289 -90q109 90 293 90q219 0 332.5 -122t113.5 -360q0 -25 -6 -141h-608q10 -98 67.5 -138t184.5 -40q135 0 295 70l61 -215q-182 -96 -428 -97q-160 0 -254 43 t-153 144q-74 -98 -158 -142.5t-203 -44.5q-156 0 -245 83t-89 227zM393 311q0 -98 109 -98q80 0 127 51t47 137v54q-111 0 -170 -15q-53 -12 -83 -47t-30 -82zM969 596h344q-8 96 -48 140t-120 44q-78 0 -120 -44t-56 -140z" />
<glyph unicode="&#xe7;" horiz-adv-x="897" d="M74 489q0 252 130 388.5t367 136.5q145 0 283 -58l-57 -239q-88 37 -174 37q-209 0 -209 -262q0 -260 225 -261q88 0 176 45l55 -243q-104 -57 -286 -62l-58 -82q113 -14 164 -67t51 -154q0 -117 -72.5 -181.5t-205.5 -64.5q-119 0 -242 62l53 149q72 -35 129 -34 q84 0 84 79q0 45 -30.5 71t-104.5 42l-35 47l101 150q-164 33 -254 165t-90 336z" />
<glyph unicode="&#xe8;" horiz-adv-x="1103" d="M74 461q0 264 130 408.5t369 144.5q457 0 457 -484q0 -26 -6 -139h-616q10 -96 68.5 -137t191.5 -41q131 0 295 70l61 -215q-180 -96 -434 -97q-266 0 -391 119t-125 371zM164 1485h401l223 -377h-272zM399 596h344q-8 96 -48 140t-120 44q-78 0 -120 -44t-56 -140z" />
<glyph unicode="&#xe9;" horiz-adv-x="1103" d="M74 461q0 264 130 408.5t369 144.5q457 0 457 -484q0 -26 -6 -139h-616q10 -96 68.5 -137t191.5 -41q131 0 295 70l61 -215q-180 -96 -434 -97q-266 0 -391 119t-125 371zM399 596h344q-8 96 -48 140t-120 44q-78 0 -120 -44t-56 -140zM399 1108l224 377h401l-352 -377 h-273z" />
<glyph unicode="&#xea;" horiz-adv-x="1103" d="M74 461q0 264 130 408.5t369 144.5q457 0 457 -484q0 -26 -6 -139h-616q10 -96 68.5 -137t191.5 -41q131 0 295 70l61 -215q-180 -96 -434 -97q-266 0 -391 119t-125 371zM127 1108l307 377h326l309 -377h-336l-135 186l-135 -186h-336zM399 596h344q-8 96 -48 140 t-120 44q-78 0 -120 -44t-56 -140z" />
<glyph unicode="&#xeb;" horiz-adv-x="1103" d="M74 461q0 264 130 408.5t369 144.5q457 0 457 -484q0 -26 -6 -139h-616q10 -96 68.5 -137t191.5 -41q131 0 295 70l61 -215q-180 -96 -434 -97q-266 0 -391 119t-125 371zM205 1294q0 72 52 123t126 51q70 0 121 -51t51 -123q0 -74 -51 -125t-123 -51q-74 0 -125 51.5 t-51 124.5zM399 596h344q-8 96 -48 140t-120 44q-78 0 -120 -44t-56 -140zM651 1294q0 72 52 123t126 51q70 0 121 -51t51 -123q0 -74 -51 -125t-125 -51q-72 0 -123 51.5t-51 124.5z" />
<glyph unicode="&#xec;" horiz-adv-x="616" d="M-100 1485h401l223 -377h-272zM143 0v985h330v-985h-330z" />
<glyph unicode="&#xed;" horiz-adv-x="616" d="M129 1108l223 377h402l-353 -377h-272zM143 0v985h330v-985h-330z" />
<glyph unicode="&#xee;" horiz-adv-x="616" d="M-162 1108l307 377h326l309 -377h-336l-135 186l-135 -186h-336zM143 0v985h330v-985h-330z" />
<glyph unicode="&#xef;" horiz-adv-x="616" d="M-92 1294q0 72 52 123t126 51q70 0 121 -51t51 -123q0 -74 -51 -125t-123 -51q-74 0 -125 51.5t-51 124.5zM143 0v985h330v-985h-330zM354 1294q0 72 52 123t126 51q70 0 121.5 -51t51.5 -123q0 -74 -51.5 -125t-125.5 -51q-72 0 -123 51.5t-51 124.5z" />
<glyph unicode="&#xf0;" horiz-adv-x="1165" d="M76 473q0 229 126 365.5t339 136.5q57 0 131 -14q-51 123 -162 204l-178 -133l-72 94l135 101q-63 29 -170 43l43 219q229 -29 359 -86l174 131l69 -96l-129 -99q348 -244 349 -823q0 -270 -127 -403q-131 -141 -381 -142q-244 0 -375 130t-131 372zM416 471 q0 -115 44 -177.5t124 -62.5q78 0 122 63.5t44 178.5q0 113 -43 177.5t-121 64.5q-170 0 -170 -244z" />
<glyph unicode="&#xf1;" horiz-adv-x="1202" d="M137 0v985h281l16 -123q131 152 316 152q193 0 270 -123q51 -78 51 -264v-627h-330v535q0 102 -12 135q-23 57 -86 57q-111 0 -176 -158v-569h-330zM176 1108q27 164 62 240q72 152 225 151q90 0 155 -57q14 -10 78 -82q23 -27 52 -27q53 0 63 152h217q-12 -127 -33 -199 q-57 -193 -239 -192q-113 0 -199 94q-39 45 -54.5 58.5t-31.5 13.5q-66 0 -80 -152h-215z" />
<glyph unicode="&#xf2;" horiz-adv-x="1161" d="M74 489q0 254 133 389.5t381 135.5q238 0 368.5 -137.5t130.5 -385t-132 -384t-373.5 -136.5t-374.5 135.5t-133 382.5zM190 1485h402l223 -377h-272zM414 492q0 -123 44 -192t124 -69q78 0 122 69t44 192q0 125 -43 193.5t-121 68.5q-82 0 -126 -69t-44 -193z" />
<glyph unicode="&#xf3;" horiz-adv-x="1161" d="M74 489q0 254 133 389.5t381 135.5q238 0 368.5 -137.5t130.5 -385t-132 -384t-373.5 -136.5t-374.5 135.5t-133 382.5zM393 1108l223 377h402l-352 -377h-273zM414 492q0 -123 44 -192t124 -69q78 0 122 69t44 192q0 125 -43 193.5t-121 68.5q-82 0 -126 -69t-44 -193z " />
<glyph unicode="&#xf4;" horiz-adv-x="1161" d="M74 489q0 254 133 389.5t381 135.5q238 0 368.5 -137.5t130.5 -385t-132 -384t-373.5 -136.5t-374.5 135.5t-133 382.5zM111 1108l307 377h325l310 -377h-336l-135 186l-136 -186h-335zM414 492q0 -123 44 -192t124 -69q78 0 122 69t44 192q0 125 -43 193.5t-121 68.5 q-82 0 -126 -69t-44 -193z" />
<glyph unicode="&#xf5;" horiz-adv-x="1161" d="M74 489q0 254 133 389.5t381 135.5q238 0 368.5 -137.5t130.5 -385t-132 -384t-373.5 -136.5t-374.5 135.5t-133 382.5zM156 1108q27 164 61 240q72 152 225 151q90 0 156 -57q14 -10 78 -82q23 -27 51 -27q54 0 64 152h217q-12 -127 -33 -199q-57 -193 -240 -192 q-113 0 -198 94q-39 45 -54.5 58.5t-31.5 13.5q-66 0 -80 -152h-215zM414 492q0 -123 44 -192t124 -69q78 0 122 69t44 192q0 125 -43 193.5t-121 68.5q-82 0 -126 -69t-44 -193z" />
<glyph unicode="&#xf6;" horiz-adv-x="1161" d="M74 489q0 254 133 389.5t381 135.5q238 0 368.5 -137.5t130.5 -385t-132 -384t-373.5 -136.5t-374.5 135.5t-133 382.5zM182 1294q0 72 52 123t126 51q70 0 121 -51t51 -123q0 -74 -51 -125t-123 -51q-74 0 -125 51.5t-51 124.5zM414 492q0 -123 44 -192t124 -69 q78 0 122 69t44 192q0 125 -43 193.5t-121 68.5q-82 0 -126 -69t-44 -193zM629 1294q0 72 52 123t126 51q70 0 121 -51t51 -123q0 -74 -51 -125t-125 -51q-72 0 -123 51.5t-51 124.5z" />
<glyph unicode="&#xf7;" d="M84 561l33 299h944l-33 -299h-944zM391 289q0 76 54.5 128t132.5 52q72 0 125 -53.5t53 -129t-53.5 -129t-129 -53.5t-129 54.5t-53.5 130.5zM391 1136.5q0 75.5 54.5 128t132.5 52.5q72 0 125 -53.5t53 -129t-53.5 -129t-129 -53.5t-129 54.5t-53.5 130z" />
<glyph unicode="&#xf8;" horiz-adv-x="1161" d="M74 492q0 248 132 385t369 137q170 0 289 -66l80 94l137 -110l-88 -101q94 -139 94 -339q0 -246 -132 -383.5t-367 -137.5q-174 0 -287 64l-80 -92l-141 108l90 103q-96 135 -96 338zM399 494q1 -3 7 -93l284 326q-49 39 -108 39q-86 0 -134.5 -72.5t-48.5 -199.5z M473 258q55 -39 109 -39q84 0 133 71.5t49 194.5q0 13 -6 97z" />
<glyph unicode="&#xf9;" horiz-adv-x="1179" d="M131 379v606h330v-516q0 -125 20.5 -168t79.5 -43q94 0 152 98v629h329v-985h-297l-14 102q-119 -131 -287 -131q-186 0 -262 129q-51 82 -51 279zM199 1485h401l223 -377h-272z" />
<glyph unicode="&#xfa;" horiz-adv-x="1179" d="M131 379v606h330v-516q0 -125 20.5 -168t79.5 -43q94 0 152 98v629h329v-985h-297l-14 102q-119 -131 -287 -131q-186 0 -262 129q-51 82 -51 279zM422 1108l223 377h402l-353 -377h-272z" />
<glyph unicode="&#xfb;" horiz-adv-x="1179" d="M119 1108l307 377h326l309 -377h-336l-135 186l-135 -186h-336zM131 379v606h330v-516q0 -125 20.5 -168t79.5 -43q94 0 152 98v629h329v-985h-297l-14 102q-119 -131 -287 -131q-186 0 -262 129q-51 82 -51 279z" />
<glyph unicode="&#xfc;" horiz-adv-x="1179" d="M131 379v606h330v-516q0 -125 20.5 -168t79.5 -43q94 0 152 98v629h329v-985h-297l-14 102q-119 -131 -287 -131q-186 0 -262 129q-51 82 -51 279zM190 1294q0 72 52.5 123t126.5 51q70 0 121 -51t51 -123q0 -74 -51.5 -125t-122.5 -51q-74 0 -125.5 51.5t-51.5 124.5z M637 1294q0 72 52 123t126 51q70 0 121 -51t51 -123q0 -74 -51 -125t-125 -51q-72 0 -123 51.5t-51 124.5z" />
<glyph unicode="&#xfd;" horiz-adv-x="1073" d="M-4 985h371l176 -610l231 610h330l-619 -1497l-319 100l178 387zM348 1108l223 377h402l-352 -377h-273z" />
<glyph unicode="&#xfe;" horiz-adv-x="1183" d="M137 -492v1932l330 69v-583q96 88 244 88q188 0 292.5 -130t104.5 -366q0 -547 -469 -547q-92 0 -172 29v-444zM467 274q59 -43 125 -43q176 0 176 275q0 115 -40 181.5t-110 66.5q-86 0 -126 -92q-25 -51 -25 -166v-222z" />
<glyph unicode="&#xff;" horiz-adv-x="1073" d="M-4 985h371l176 -610l231 610h330l-619 -1497l-319 100l178 387zM137 1294q0 72 52 123t126 51q70 0 121 -51t51 -123q0 -74 -51 -125t-123 -51q-74 0 -125 51.5t-51 124.5zM584 1294q0 72 52 123t126 51q70 0 121 -51t51 -123q0 -74 -51.5 -125t-124.5 -51 q-72 0 -123 51.5t-51 124.5z" />
<glyph unicode="&#x152;" horiz-adv-x="1826" d="M82 705q0 193 62.5 346t177.5 239q127 94 342 113q51 4 243 4h852l-22 -281h-518v-258h391l-21 -260h-370v-327h557l-15 -281h-854q-258 0 -366 20q-217 39 -338 220.5t-121 464.5zM442 698q0 -219 101 -338q43 -51 101 -69.5t173 -18.5h51v854h-51q-115 0 -173 -18 t-101 -70q-100 -119 -101 -340z" />
<glyph unicode="&#x153;" horiz-adv-x="1763" d="M74 494q0 244 131 382t362 138q219 0 342 -140q119 139 328 140q453 0 453 -479q0 -31 -7 -144h-608q10 -100 66.5 -139t185.5 -39q133 0 293 70l61 -215q-182 -96 -426 -97q-250 0 -356 125q-113 -125 -332 -125q-231 0 -362 138.5t-131 384.5zM414 492q0 -123 43 -192 t120.5 -69t120.5 69t43 194q0 123 -42.5 191.5t-118.5 68.5q-80 0 -123 -68t-43 -194zM1059 596h344q-8 96 -48 140t-120 44q-78 0 -120 -44t-56 -140z" />
<glyph unicode="&#x178;" horiz-adv-x="1177" d="M-61 1407h409l262 -533l260 533h371l-477 -881v-526h-350v526zM188 1722q0 72 52.5 123t126.5 51q70 0 121 -51t51 -123q0 -74 -51.5 -125t-122.5 -51q-74 0 -125.5 51.5t-51.5 124.5zM639 1722q0 72 52 123t126 51q70 0 121 -51t51 -123q0 -74 -51 -125t-125 -51 q-72 0 -123 51.5t-51 124.5z" />
<glyph unicode="&#x2c6;" horiz-adv-x="1024" d="M41 1108l307 377h326l309 -377h-336l-135 186l-135 -186h-336z" />
<glyph unicode="&#x2dc;" horiz-adv-x="1024" d="M86 1108q27 164 61 240q72 152 226 151q90 0 155 -57q14 -10 78 -82q23 -27 51 -27q54 0 64 152h217q-12 -127 -33 -199q-57 -193 -239 -192q-113 0 -199 94q-39 45 -54.5 58.5t-31.5 13.5q-66 0 -80 -152h-215z" />
<glyph unicode="&#x2000;" horiz-adv-x="964" />
<glyph unicode="&#x2001;" horiz-adv-x="1929" />
<glyph unicode="&#x2002;" horiz-adv-x="964" />
<glyph unicode="&#x2003;" horiz-adv-x="1929" />
<glyph unicode="&#x2004;" horiz-adv-x="643" />
<glyph unicode="&#x2005;" horiz-adv-x="482" />
<glyph unicode="&#x2006;" horiz-adv-x="321" />
<glyph unicode="&#x2007;" horiz-adv-x="321" />
<glyph unicode="&#x2008;" horiz-adv-x="241" />
<glyph unicode="&#x2009;" horiz-adv-x="385" />
<glyph unicode="&#x200a;" horiz-adv-x="107" />
<glyph unicode="&#x2010;" horiz-adv-x="823" d="M80 487l41 299h622l-41 -299h-622z" />
<glyph unicode="&#x2011;" horiz-adv-x="823" d="M80 487l41 299h622l-41 -299h-622z" />
<glyph unicode="&#x2012;" horiz-adv-x="823" d="M80 487l41 299h622l-41 -299h-622z" />
<glyph unicode="&#x2013;" d="M80 487l41 299h944l-41 -299h-944z" />
<glyph unicode="&#x2014;" d="M-92 487v299h1331v-299h-1331z" />
<glyph unicode="&#x2018;" horiz-adv-x="544" d="M27 831l166 642h276l-82 -642h-360z" />
<glyph unicode="&#x2019;" horiz-adv-x="544" d="M76 831l82 642h360l-166 -642h-276z" />
<glyph unicode="&#x201a;" horiz-adv-x="544" d="M76 -299l82 641h360l-166 -641h-276z" />
<glyph unicode="&#x201c;" horiz-adv-x="1042" d="M27 831l166 642h276l-82 -642h-360zM524 831l166 642h277l-82 -642h-361z" />
<glyph unicode="&#x201d;" horiz-adv-x="1042" d="M76 831l82 642h360l-166 -642h-276zM573 831l82 642h361l-166 -642h-277z" />
<glyph unicode="&#x201e;" horiz-adv-x="1042" d="M76 -299l82 641h360l-166 -641h-276zM573 -299l82 641h361l-166 -641h-277z" />
<glyph unicode="&#x2022;" d="M209 733q0 154 106.5 257.5t264.5 103.5q150 0 253 -105.5t103 -257.5q0 -156 -104.5 -260t-260.5 -104q-154 0 -258 105.5t-104 260.5z" />
<glyph unicode="&#x2026;" horiz-adv-x="1720" d="M88 172q0 82 59.5 139.5t143.5 57.5q80 0 137 -58.5t57 -140.5q0 -84 -58 -141.5t-140 -57.5q-84 0 -141.5 58.5t-57.5 142.5zM662 172q0 82 59 139.5t143 57.5q80 0 137.5 -58.5t57.5 -140.5q0 -84 -58.5 -141.5t-140.5 -57.5q-84 0 -141 58.5t-57 142.5zM1235 172 q0 82 59.5 139.5t143.5 57.5q80 0 137 -58.5t57 -140.5q0 -84 -58 -141.5t-140 -57.5q-84 0 -141.5 58.5t-57.5 142.5z" />
<glyph unicode="&#x202f;" horiz-adv-x="385" />
<glyph unicode="&#x2039;" horiz-adv-x="692" d="M63 494v90l400 387l170 -146l-182 -286l182 -289l-170 -144z" />
<glyph unicode="&#x203a;" horiz-adv-x="692" d="M59 250l183 289l-183 286l170 146l400 -387v-90l-400 -388z" />
<glyph unicode="&#x205f;" horiz-adv-x="482" />
<glyph unicode="&#x20ac;" d="M2 434l59 162h99q-6 55 -6 80q0 18 2 43h-154l59 162h107q92 555 575 555q233 0 412 -133l-100 -228q-150 86 -271 86q-211 0 -256 -280h453l-59 -162h-406q-2 -18 -2 -43q0 -47 4 -80h352l-57 -162h-268q31 -98 91 -143t163 -45q133 0 270 84l107 -236 q-190 -123 -418 -123q-459 0 -574 463h-182z" />
<glyph unicode="&#x2122;" horiz-adv-x="1886" d="M4 1227l14 180h732l-15 -180h-233v-670h-252v670h-246zM805 557l61 850h244l211 -463l211 463h244l61 -850h-238l-30 447l-191 -447h-114l-191 447l-31 -447h-237z" />
<glyph unicode="&#x25fc;" horiz-adv-x="983" d="M0 0v983h983v-983h-983z" />
<glyph unicode="&#xfb01;" horiz-adv-x="1349" d="M-8 725l20 260h152v100q0 213 83 312.5t261 99.5q131 0 276 -61l-73 -230q-4 2 -11 4q-4 2 -8 2l-2 2q-63 23 -102 23q-53 0 -73.5 -33t-20.5 -119v-100h247l-20 -260h-227v-725h-330v725h-172zM854 1294.5q0 77.5 55 131t135 53.5q76 0 129.5 -54.5t53.5 -132.5 t-54.5 -132t-132 -54t-132 55.5t-54.5 133zM877 0v985h329v-985h-329z" />
<glyph unicode="&#xfb02;" horiz-adv-x="1390" d="M-8 725l20 260h152v100q0 213 83 312.5t261 99.5q131 0 276 -61l-73 -230q-4 2 -11 4q-4 2 -8 2l-2 2q-63 23 -102 23q-53 0 -73.5 -33t-20.5 -119v-100h247l-20 -260h-227v-725h-330v725h-172zM918 0v1440l329 71v-1511h-329z" />
</font>
</defs>
</svg>
