<svg id="Layer_1" xmlns="http://www.w3.org/2000/svg" xmlns:xlink="http://www.w3.org/1999/xlink" viewBox="0 0 471.6 97.3"><style>.st0,.st1,.st2{clip-path:url(#SVGID_2_);fill:#edbf07}.st1,.st2{fill:#227b3c}.st2{fill:#fff}</style><defs><path id="SVGID_1_" d="M0 0h471.6v97.3H0z"/></defs><clipPath id="SVGID_2_"><use xlink:href="#SVGID_1_" overflow="visible"/></clipPath><path class="st0" d="M49.7 57.4c2.6 6.5 1.2 14-3.9 19.1-3.4 3.4-7.9 5.2-12.6 5.2-4.8 0-9.2-1.8-12.6-5.2-1.7-1.7-3-3.6-3.8-5.7l-4.6 1.9c1.1 2.7 2.8 5.2 4.9 7.4 4.3 4.3 10 6.7 16.1 6.7 6 0 11.7-2.4 16.1-6.7 6.6-6.6 8.4-16.2 5-24.6l-4.6 1.9z"/><path class="st1" d="M18 54.8l15.2-25.2L47.3 53l4.7-2-18.8-31-19.4 32.2c-2.9 4.8-3.9 10.4-3 15.7l4.8-1.9c-.4-3.8.3-7.7 2.4-11.2M59.3 53.5c4.3 10.4 2.1 22.5-6.1 30.6-5.4 5.3-12.5 8.3-20 8.3-7.6 0-14.7-2.9-20-8.2-2.7-2.7-4.8-5.9-6.2-9.3l-4.6 1.9c1.6 4 4.1 7.7 7.3 10.9 6.3 6.3 14.6 9.7 23.5 9.7 8.8 0 17.1-3.4 23.5-9.7C66.4 78 69 63.8 64 51.6l-4.7 1.9z"/><path class="st0" d="M9.1 49.6L33.2 9.7 57 49l4.7-1.9V47L33.2 0 4.8 47C.1 54.7-1.1 63.6.9 71.9L5.6 70c-1.4-6.8-.3-14.1 3.5-20.4"/><path class="st2" d="M83.4 22.3h6l4.3 15.8 4.5-15.8h5.5l-7.6 22.4H91zM119.4 36.9c0 5.3-2.9 8.3-8 8.3s-8.1-3-8.1-8.2c0-5.4 2.9-8.3 8.2-8.3 5-.1 7.9 2.9 7.9 8.2m-10.7 0c0 2.6 1 4.1 2.7 4.1 1.7 0 2.6-1.5 2.6-4.1 0-2.6-1-4.2-2.6-4.2-1.7 0-2.7 1.5-2.7 4.2M134.4 44.1c-1.2.7-2.8 1-4.6 1-2.5 0-4.3-.6-5.6-1.8-1.6-1.4-2.4-3.6-2.4-6.4 0-5.3 2.9-8.3 7.9-8.3 1.7 0 2.9.3 4.5.9l-.9 3.8c-1-.4-1.8-.6-2.8-.6-2.2 0-3.3 1.4-3.3 4.2 0 2.7 1.2 4.1 3.6 4.1.9 0 1.8-.2 2.8-.7l.8 3.8zM137 21.8l5.2-1.1v9.7c1.5-1.3 2.7-1.8 4.5-1.8 1.9 0 3.5.7 4.3 2 .6.9.8 2 .8 4.2v10h-5.2v-8.5c0-1.3 0-1.7-.2-2.1-.2-.6-.7-.9-1.4-.9-1.2 0-2.2.9-2.8 2.5v9H137v-23zM153.8 33.1l.3-4.1h2.6l.2-3.9 4.8-1.8V29h3.9l-.3 4.1h-3.6v4.6c0 2.8.3 3.3 1.7 3.3.7 0 1.3-.1 2.1-.5l.9 3.3c-1.8.9-3.4 1.4-5.2 1.4-2 0-3.3-.7-4-1.9-.5-.9-.7-2.2-.7-4.8v-5.2h-2.7zM168.1 32.2h9.9l-.7 4.7h-9.8zM193.5 38.4c.2 2 1.3 2.8 4.1 2.8 1.6 0 2.7-.3 4.7-1.1l1 3.4c-1.9 1-4.2 1.5-6.9 1.5-5.6 0-8.2-2.4-8.2-7.8 0-5.6 2.9-8.8 7.9-8.8 4.8 0 7.3 2.5 7.3 7.7 0 .5 0 1-.1 2.2h-9.8zm5.4-3.2c-.2-2-1-2.9-2.7-2.9-1.7 0-2.5.9-2.8 2.9h5.5zM206.8 29h4.5l.3 2c1.5-1.7 3-2.4 5-2.4s3.5.7 4.3 2c.6.9.8 2 .8 4.2v10h-5.2v-8.5c0-1.3 0-1.7-.2-2.1-.2-.6-.7-.9-1.4-.9-1.1 0-2.1.9-2.8 2.5v9h-5.2V29zM233.1 39.9c2.1 1 3.4 1.3 5 1.3.9 0 1.3-.3 1.3-.9 0-.6 0-.6-2.4-1.9-3.1-1.7-4.2-3-4.2-5.1 0-3 2.1-4.8 5.9-4.8 1.7 0 3.4.3 5 .9l-.7 3.7c-1-.4-2.6-.7-3.6-.7-.8 0-1.2.3-1.2.8s.2.7 1.2 1.3c2.6 1.5 3.3 1.9 4 2.6 1 .9 1.4 1.9 1.4 3.2 0 1.4-.7 2.8-1.8 3.6-1.1.8-2.6 1.2-4.7 1.2-2.3 0-4.1-.4-6.1-1.3l.9-3.9zM259.7 44.1c-1.2.7-2.8 1-4.6 1-2.5 0-4.3-.6-5.6-1.8-1.6-1.4-2.4-3.6-2.4-6.4 0-5.3 2.9-8.3 7.9-8.3 1.7 0 2.9.3 4.5.9l-.9 3.8c-1-.4-1.8-.6-2.8-.6-2.2 0-3.3 1.4-3.3 4.2 0 2.7 1.2 4.1 3.6 4.1.9 0 1.8-.2 2.8-.7l.8 3.8zM262.4 21.8l5.2-1.1v9.7c1.5-1.3 2.7-1.8 4.5-1.8 1.9 0 3.5.7 4.3 2 .6.9.8 2 .8 4.2v10H272v-8.5c0-1.3 0-1.7-.2-2.1-.2-.6-.7-.9-1.4-.9-1.2 0-2.2.9-2.8 2.5v9h-5.2v-23zM287.1 24.1c0 1.6-1.3 3-3 3s-3-1.3-3-3c0-1.6 1.3-2.9 3-2.9s3 1.3 3 2.9m-5.5 4.9h5.2v15.6h-5.2V29zM291.3 29h4.5l.3 2c1.4-1.7 2.9-2.4 4.8-2.4 2.1 0 3.5.8 4.4 2.4 1.7-1.8 2.9-2.4 4.8-2.4s3.3.7 4.2 2c.6.9.8 2 .8 4.2v10h-5.2v-8.5c0-1.2 0-1.7-.2-2.1-.2-.6-.6-.9-1.2-.9-1 0-2 .9-2.6 2.5v9h-5.2v-8.4c0-1.4 0-1.8-.2-2.3-.2-.6-.6-.9-1.2-.9-1 0-2 .9-2.6 2.5v9h-5.2V29zM319.2 29h4.5l.3 2c1.4-1.7 2.9-2.4 4.8-2.4 2.1 0 3.5.8 4.4 2.4 1.7-1.8 2.9-2.4 4.8-2.4s3.3.7 4.2 2c.6.9.8 2 .8 4.2v10h-5.2v-8.5c0-1.2 0-1.7-.2-2.1-.2-.6-.6-.9-1.2-.9-1 0-2 .9-2.6 2.5v9h-5.2v-8.4c0-1.4 0-1.8-.2-2.3-.2-.6-.6-.9-1.2-.9-1 0-2 .9-2.6 2.5v9h-5.2V29zM351.5 38.4c.2 2 1.3 2.8 4.1 2.8 1.6 0 2.7-.3 4.7-1.1l1 3.4c-1.9 1-4.2 1.5-6.9 1.5-5.6 0-8.2-2.4-8.2-7.8 0-5.6 2.9-8.8 7.9-8.8 4.8 0 7.3 2.5 7.3 7.7 0 .5 0 1-.1 2.2h-9.8zm5.3-3.2c-.2-2-1-2.9-2.7-2.9-1.7 0-2.5.9-2.8 2.9h5.5zM364.8 21.8l5.3-1.1v24h-5.3zM378.8 38.4c.2 2 1.3 2.8 4.1 2.8 1.6 0 2.7-.3 4.7-1.1l1 3.4c-1.9 1-4.2 1.5-6.9 1.5-5.6 0-8.2-2.4-8.2-7.8 0-5.6 2.9-8.8 7.9-8.8 4.8 0 7.3 2.5 7.3 7.7 0 .5 0 1-.1 2.2h-9.8zm5.3-3.2c-.2-2-1-2.9-2.7-2.9-1.7 0-2.5.9-2.8 2.9h5.5zM390.5 29h6.5l2.8 3.9 2.9-3.9h6l-6 7.5 6.3 8.2h-6.4l-3.4-4.7-3.3 4.7h-6.1l6.5-8.2zM410.7 29h4.4l.3 1.6c1.2-1.4 2.6-2 4.5-2 4 0 6.3 2.9 6.3 7.9 0 5.8-2.4 8.6-7.4 8.6-1.2 0-1.8-.1-2.8-.5v7.1l-5.2.7V29zm5.3 11.3c.7.5 1.2.7 2 .7 1.9 0 2.8-1.5 2.8-4.4 0-2.4-.9-3.9-2.4-3.9-.8 0-1.6.5-2 1.5-.3.6-.4 1.3-.4 2.6v3.5zM433.8 38.4c.2 2 1.3 2.8 4.1 2.8 1.6 0 2.7-.3 4.7-1.1l1 3.4c-1.9 1-4.2 1.5-6.9 1.5-5.6 0-8.2-2.4-8.2-7.8 0-5.6 2.9-8.8 7.9-8.8 4.8 0 7.3 2.5 7.3 7.7 0 .5 0 1-.1 2.2h-9.8zm5.4-3.2c-.2-2-1-2.9-2.7-2.9-1.7 0-2.5.9-2.8 2.9h5.5zM447.1 29h4.5l.3 2.6c1.7-1.8 3.8-2.7 6.3-2.7l-.4 4.3c-2.9.2-4.5 1.1-5.5 3.1v8.4h-5.2V29zM459 33.1l.3-4.1h2.6l.2-3.9 4.8-1.8V29h3.9l-.3 4.1H467v4.6c0 2.8.3 3.3 1.7 3.3.7 0 1.3-.1 2.1-.5l.9 3.3c-1.8.9-3.4 1.4-5.2 1.4-2 0-3.3-.7-4-1.9-.5-.9-.7-2.2-.7-4.8v-5.2H459zM95.8 57.3h5.9c3.4 0 5.6.7 7.4 2.2 2.1 1.9 3.3 5 3.3 8.9 0 3.8-1.1 6.8-3.1 8.7-1.9 1.8-4.1 2.5-7.8 2.5h-5.7V57.3zm5.6 19.8c5.3 0 7.9-2.9 7.9-8.8 0-3.5-1-6.1-2.9-7.3-1.3-.9-2.6-1.1-5.5-1.1h-2.1v17.3h2.6zM118.2 72.5c.2 3.6 1.8 5.3 5.2 5.3 1.6 0 2.8-.4 4-1.4l1.2 2c-1.5 1.2-3.3 1.8-5.8 1.8-4.8 0-7.4-2.8-7.4-8 0-5.4 2.6-8.6 7.1-8.6 4.2 0 6.3 2.7 6.3 8 0 .4 0 .6-.1 1h-10.5zm7.7-2.1c-.1-3.1-1.2-4.5-3.6-4.5-2.3 0-3.8 1.7-3.9 4.5h7.5zM133 64h2.7l.1 2.4c1.9-2.1 3.4-2.8 5.5-2.8s3.6.9 4.3 2.5c.4.8.5 2 .5 4.1v9.6h-2.8v-10c0-2.7-.6-3.6-2.5-3.6-1.6 0-3.2 1-5 3.3v10.3H133V64zM159.6 57.3h3v9.4h10.6v-9.4h2.9v22.4h-2.9V69.3h-10.6v10.4h-3zM190 69c0-2.1-1-3.1-3.3-3.1-1.7 0-3.2.5-4.7 1.6l-1-2.1c1.9-1.2 3.8-1.9 6-1.9 2.1 0 3.8.7 4.8 1.8.6.7.9 1.6 1 2.7v11.7h-2.5l-.3-2c-1.1 1.6-2.7 2.4-4.9 2.4-3.1 0-4.9-1.7-4.9-4.7 0-2.9 1.5-4.6 4.7-5.3 1.2-.3 2.5-.4 5.1-.5V69zm0 2.7c-2 .1-2.8.2-3.9.4-2 .4-3 1.5-3 3.2 0 1.6.9 2.5 2.4 2.5 1.3 0 2.7-.6 3.6-1.7.6-.8.9-1.4.9-2.6v-1.8zM206.6 69c0-2.1-1-3.1-3.3-3.1-1.7 0-3.2.5-4.7 1.6l-1-2.1c1.9-1.2 3.8-1.9 6-1.9 2.1 0 3.8.7 4.8 1.8.6.7.9 1.6 1 2.7v11.7H207l-.3-2c-1.1 1.6-2.7 2.4-4.9 2.4-3.1 0-4.9-1.7-4.9-4.7 0-2.9 1.5-4.6 4.7-5.3 1.2-.3 2.5-.4 5.1-.5V69zm0 2.7c-2 .1-2.8.2-3.9.4-2 .4-3 1.5-3 3.2 0 1.6.9 2.5 2.4 2.5 1.3 0 2.7-.6 3.6-1.7.6-.8.9-1.4.9-2.6v-1.8zM223.8 78c-1.4 1.5-2.7 2.1-4.6 2.1-3.8 0-5.9-2.7-5.9-7.6 0-5.5 2.9-9 7.6-9 1.8 0 3.4.3 5.8 1.1v12.2c0 2.9-.2 5.2-.6 6.4-.8 2.5-3.2 3.9-6.6 3.9-1.9 0-3.3-.3-4.8-.9l.9-2.2c1.4.6 2.4.8 3.9.8 2 0 3.2-.6 3.7-1.9.4-.9.6-2.2.6-4.1V78zm0-11.4c-1-.5-2-.7-3-.7-2.9 0-4.6 2.4-4.6 6.7 0 3.4 1.2 5.2 3.5 5.2 1.3 0 2.6-.7 3.3-1.8.6-.8.7-1.5.7-3v-6.4z"/></svg>