<svg id="Layer_1" xmlns="http://www.w3.org/2000/svg" viewBox="0 0 388.2 66.6"><style>.st0{fill:#fff}</style><path class="st0" d="M0 1.7h6l4.3 15.8 4.5-15.8h5.5L12.6 24H7.5zM36 16.2c0 5.3-2.9 8.3-8 8.3s-8.1-3-8.1-8.2c0-5.4 2.9-8.3 8.2-8.3 4.9-.1 7.9 3 7.9 8.2m-10.7 0c0 2.6 1 4.1 2.7 4.1 1.7 0 2.6-1.5 2.6-4.1 0-2.6-1-4.2-2.6-4.2-1.8 0-2.7 1.5-2.7 4.2M51 23.5c-1.2.7-2.8 1-4.6 1-2.5 0-4.3-.6-5.6-1.8-1.6-1.4-2.4-3.6-2.4-6.4 0-5.3 2.9-8.3 7.9-8.3 1.7 0 2.9.3 4.5.9l-.9 3.8c-1.1-.5-1.9-.7-2.9-.7-2.2 0-3.3 1.4-3.3 4.2 0 2.7 1.2 4.1 3.6 4.1.9 0 1.8-.2 2.8-.7l.9 3.9zM53.6 1.1L58.8 0v9.7c1.5-1.3 2.7-1.8 4.5-1.8 1.9 0 3.5.7 4.3 2 .6.9.8 2 .8 4.2v10h-5.2v-8.5c0-1.3 0-1.7-.2-2.1-.2-.6-.7-.9-1.4-.9-1.2 0-2.2.9-2.8 2.5v9h-5.2v-23zM70.4 12.5l.3-4.1h2.6l.2-3.9 4.8-1.8v5.6h3.9l-.3 4.1h-3.6V17c0 2.8.3 3.3 1.7 3.3.7 0 1.3-.1 2.1-.5l.9 3.3c-1.8.9-3.4 1.4-5.2 1.4-2 0-3.3-.7-4-1.9-.5-.9-.7-2.2-.7-4.8v-5.2h-2.7zM84.7 11.5h9.9l-.7 4.8H84zM110.1 17.8c.2 2 1.3 2.8 4.1 2.8 1.6 0 2.7-.3 4.7-1.1l1 3.4c-1.9 1-4.2 1.5-6.9 1.5-5.6 0-8.2-2.4-8.2-7.8 0-5.6 2.9-8.8 7.9-8.8 4.8 0 7.3 2.5 7.3 7.7 0 .5 0 1-.1 2.2h-9.8zm5.3-3.3c-.2-2-1-2.9-2.7-2.9-1.7 0-2.5.9-2.8 2.9h5.5zM123.4 8.4h4.5l.3 2c1.5-1.7 3-2.4 5-2.4s3.5.7 4.3 2c.6.9.8 2 .8 4.2v10h-5.2v-8.5c0-1.3 0-1.7-.2-2.1-.2-.6-.7-.9-1.4-.9-1.1 0-2.1.9-2.8 2.5v9h-5.2V8.4zM149.7 19.3c2.1 1 3.4 1.3 5 1.3.9 0 1.3-.3 1.3-.9 0-.6 0-.6-2.4-1.9-3.1-1.7-4.2-3-4.2-5.1 0-3 2.1-4.8 5.9-4.8 1.7 0 3.4.3 5 .9l-.7 3.7c-1-.4-2.6-.7-3.6-.7-.8 0-1.2.3-1.2.8s.2.7 1.2 1.3c2.6 1.5 3.3 1.9 4 2.6 1 .9 1.4 1.9 1.4 3.2 0 1.4-.7 2.8-1.8 3.6-1.1.8-2.6 1.2-4.7 1.2-2.3 0-4.1-.4-6.1-1.3l.9-3.9zM176.3 23.5c-1.2.7-2.8 1-4.6 1-2.5 0-4.3-.6-5.6-1.8-1.6-1.4-2.4-3.6-2.4-6.4 0-5.3 2.9-8.3 7.9-8.3 1.7 0 2.9.3 4.5.9l-.9 3.8c-1-.4-1.8-.6-2.8-.6-2.2 0-3.3 1.4-3.3 4.2 0 2.7 1.2 4.1 3.6 4.1.9 0 1.8-.2 2.8-.7l.8 3.8zM179 1.1l5.2-1.1v9.7c1.5-1.3 2.7-1.8 4.5-1.8 1.9 0 3.5.7 4.3 2 .6.9.8 2 .8 4.2v10h-5.2v-8.5c0-1.3 0-1.7-.2-2.1-.2-.6-.7-.9-1.4-.9-1.2 0-2.2.9-2.8 2.5v9H179v-23zM203.7 3.5c0 1.6-1.3 3-3 3s-3-1.3-3-3c0-1.6 1.3-2.9 3-2.9 1.7-.1 3 1.3 3 2.9m-5.6 4.9h5.2V24h-5.2V8.4zM207.8 8.4h4.5l.3 2c1.4-1.7 2.9-2.4 4.8-2.4 2.1 0 3.5.8 4.4 2.4 1.7-1.8 2.9-2.4 4.8-2.4s3.3.7 4.2 2c.6.9.8 2 .8 4.2v10h-5.2v-8.5c0-1.2 0-1.7-.2-2.1-.2-.6-.6-.9-1.2-.9-1 0-2 .9-2.6 2.5v9h-5.2v-8.4c0-1.4 0-1.8-.2-2.3-.2-.6-.6-.9-1.2-.9-1 0-2 .9-2.6 2.5v9H208V8.4zM235.8 8.4h4.5l.3 2c1.4-1.7 2.9-2.4 4.8-2.4 2.1 0 3.5.8 4.4 2.4 1.7-1.8 2.9-2.4 4.8-2.4s3.3.7 4.2 2c.6.9.8 2 .8 4.2v10h-5.2v-8.5c0-1.2 0-1.7-.2-2.1-.2-.6-.6-.9-1.2-.9-1 0-2 .9-2.6 2.5v9H245v-8.4c0-1.4 0-1.8-.2-2.3-.2-.6-.6-.9-1.2-.9-1 0-2 .9-2.6 2.5v9h-5.2V8.4zM268.1 17.8c.2 2 1.3 2.8 4.1 2.8 1.6 0 2.7-.3 4.7-1.1l1 3.4c-1.9 1-4.2 1.5-6.9 1.5-5.6 0-8.2-2.4-8.2-7.8 0-5.6 2.9-8.8 7.9-8.8 4.8 0 7.3 2.5 7.3 7.7 0 .5 0 1-.1 2.2h-9.8zm5.3-3.3c-.2-2-1-2.9-2.7-2.9-1.7 0-2.5.9-2.8 2.9h5.5zM281.4 1.1l5.2-1.1v24h-5.2zM295.4 17.8c.2 2 1.3 2.8 4.1 2.8 1.6 0 2.7-.3 4.7-1.1l1 3.4c-1.9 1-4.2 1.5-6.9 1.5-5.6 0-8.2-2.4-8.2-7.8 0-5.6 2.9-8.8 7.9-8.8 4.8 0 7.3 2.5 7.3 7.7 0 .5 0 1-.1 2.2h-9.8zm5.3-3.3c-.2-2-1-2.9-2.7-2.9-1.7 0-2.5.9-2.8 2.9h5.5zM307.1 8.4h6.5l2.8 3.9 2.9-3.9h6l-6 7.4 6.3 8.2h-6.4l-3.4-4.7-3.3 4.7h-6.1l6.5-8.2zM327.3 8.4h4.4l.3 1.6c1.2-1.4 2.6-2 4.5-2 4 0 6.3 2.9 6.3 7.9 0 5.8-2.4 8.6-7.4 8.6-1.2 0-1.8-.1-2.8-.5v7.1l-5.2.7V8.4zm5.3 11.2c.7.5 1.2.7 2 .7 1.9 0 2.8-1.5 2.8-4.4 0-2.4-.9-3.9-2.4-3.9-.8 0-1.6.5-2 1.5-.3.6-.4 1.3-.4 2.6v3.5zM350.4 17.8c.2 2 1.3 2.8 4.1 2.8 1.6 0 2.7-.3 4.7-1.1l1 3.4c-1.9 1-4.2 1.5-6.9 1.5-5.6 0-8.2-2.4-8.2-7.8 0-5.6 2.9-8.8 7.9-8.8 4.8 0 7.3 2.5 7.3 7.7 0 .5 0 1-.1 2.2h-9.8zm5.3-3.3c-.2-2-1-2.9-2.7-2.9-1.7 0-2.5.9-2.8 2.9h5.5zM363.6 8.4h4.5l.3 2.6c1.7-1.8 3.8-2.7 6.3-2.7l-.4 4.3c-2.9.2-4.5 1.1-5.5 3.1V24h-5.2V8.4zM375.6 12.5l.3-4.1h2.6l.2-3.9 4.8-1.8v5.6h3.9l-.3 4.1h-3.6V17c0 2.8.3 3.3 1.7 3.3.7 0 1.3-.1 2.1-.5l.9 3.3c-1.8.9-3.4 1.4-5.2 1.4-2 0-3.3-.7-4-1.9-.5-.9-.7-2.2-.7-4.8v-5.2h-2.7zM12.4 36.7h5.9c3.4 0 5.6.7 7.4 2.2 2.1 1.9 3.3 5 3.3 8.9 0 3.8-1.1 6.8-3.1 8.7-1.9 1.8-4.2 2.5-7.8 2.5h-5.7V36.7zm5.5 19.8c5.3 0 7.9-2.9 7.9-8.8 0-3.5-1-6.1-2.9-7.3-1.3-.9-2.6-1.1-5.5-1.1h-2.1v17.3h2.6zM34.8 51.9c.2 3.6 1.8 5.3 5.2 5.3 1.6 0 2.8-.4 4-1.4l1.2 2c-1.5 1.2-3.3 1.8-5.8 1.8-4.8 0-7.4-2.8-7.4-8 0-5.4 2.6-8.6 7.1-8.6 4.2 0 6.3 2.7 6.3 8 0 .4 0 .6-.1 1H34.8zm7.7-2.2c-.1-3.1-1.2-4.5-3.6-4.5-2.3 0-3.8 1.7-3.9 4.5h7.5zM49.6 43.4h2.7l.1 2.4c1.9-2.1 3.4-2.8 5.5-2.8s3.6.9 4.3 2.5c.4.8.5 2 .5 4.1V59H60V49c0-2.7-.6-3.6-2.5-3.6-1.6 0-3.2 1-5 3.3V59h-2.8V43.4zM76.2 36.7h2.9v9.4h10.7v-9.4h2.9V59h-2.9V48.6H79.1V59h-2.9zM106.6 48.3c0-2.1-1-3.1-3.3-3.1-1.7 0-3.2.5-4.7 1.6l-1-2.1c1.9-1.2 3.8-1.9 6-1.9 2.1 0 3.8.7 4.8 1.8.6.7.9 1.6 1 2.7V59h-2.5l-.3-2c-1.1 1.6-2.7 2.4-4.9 2.4-3.1 0-4.9-1.7-4.9-4.7 0-2.9 1.5-4.6 4.7-5.3 1.2-.3 2.5-.4 5.1-.5v-.6zm0 2.8c-2 .1-2.8.2-3.9.4-2 .4-3 1.5-3 3.2 0 1.6.9 2.5 2.4 2.5 1.3 0 2.7-.6 3.6-1.7.6-.8.9-1.4.9-2.6v-1.8zM123.2 48.3c0-2.1-1-3.1-3.3-3.1-1.7 0-3.2.5-4.7 1.6l-1-2.1c1.9-1.2 3.8-1.9 6-1.9 2.1 0 3.8.7 4.8 1.8.6.7.9 1.6 1 2.7V59h-2.5l-.3-2c-1.1 1.6-2.7 2.4-4.9 2.4-3.1 0-4.9-1.7-4.9-4.7 0-2.9 1.5-4.6 4.7-5.3 1.2-.3 2.5-.4 5.1-.5v-.6zm0 2.8c-2 .1-2.8.2-3.9.4-2 .4-3 1.5-3 3.2 0 1.6.9 2.5 2.4 2.5 1.3 0 2.7-.6 3.6-1.7.6-.8.9-1.4.9-2.6v-1.8zM140.4 57.3c-1.4 1.5-2.7 2.1-4.6 2.1-3.8 0-5.9-2.7-5.9-7.6 0-5.5 2.9-9 7.6-9 1.8 0 3.4.3 5.8 1.1v12.2c0 2.9-.2 5.2-.6 6.4-.8 2.5-3.2 3.9-6.6 3.9-1.9 0-3.3-.3-4.8-.9l.9-2.2c1.4.6 2.4.8 3.9.8 2 0 3.2-.6 3.7-1.9.4-.9.6-2.2.6-4.1v-.8zm0-11.3c-1-.5-2-.7-3-.7-2.9 0-4.6 2.4-4.6 6.7 0 3.4 1.2 5.2 3.5 5.2 1.3 0 2.6-.7 3.3-1.8.6-.8.7-1.5.7-3V46z"/></svg>