<svg version="1" id="Layer_1" xmlns="http://www.w3.org/2000/svg" xmlns:xlink="http://www.w3.org/1999/xlink" viewBox="0 0 66.5 97.3"><style>.st0,.st1{clip-path:url(#SVGID_2_);fill:#edbf07}.st1{fill:#227b3c}</style><switch><g><defs><path id="SVGID_1_" d="M0 0h66.5v97.3H0z"/></defs><clipPath id="SVGID_2_"><use xlink:href="#SVGID_1_" overflow="visible"/></clipPath><path class="st0" d="M49.7 57.4c2.6 6.5 1.2 14-3.9 19.1-3.4 3.4-7.9 5.2-12.6 5.2-4.8 0-9.2-1.8-12.6-5.2-1.7-1.7-3-3.6-3.8-5.7l-4.6 1.9c1.1 2.7 2.8 5.2 4.9 7.4 4.3 4.3 10 6.7 16.1 6.7 6 0 11.7-2.4 16.1-6.7 6.6-6.6 8.4-16.2 5-24.6l-4.6 1.9z"/><path class="st1" d="M18 54.8l15.2-25.2L47.3 53l4.7-2-18.8-31-19.4 32.2c-2.9 4.8-3.9 10.4-3 15.7l4.8-1.9c-.4-3.8.3-7.7 2.4-11.2M59.3 53.5c4.3 10.4 2.1 22.5-6.1 30.6-5.4 5.3-12.5 8.3-20 8.3-7.6 0-14.7-2.9-20-8.2-2.7-2.7-4.8-5.9-6.2-9.3l-4.6 1.9c1.6 4 4.1 7.7 7.3 10.9 6.3 6.3 14.6 9.7 23.5 9.7 8.8 0 17.1-3.4 23.5-9.7C66.4 78 69 63.8 64 51.6l-4.7 1.9z"/><path class="st0" d="M9.1 49.6L33.2 9.7 57 49l4.7-1.9V47L33.2 0 4.8 47C.1 54.7-1.1 63.6.9 71.9L5.6 70c-1.4-6.8-.3-14.1 3.5-20.4"/></g></switch></svg>